<svg width="128" height="128" viewBox="0 0 128 128" fill="none" xmlns="http://www.w3.org/2000/svg">
<path d="M64 124C97.1371 124 124 97.1371 124 64C124 30.8629 97.1371 4 64 4C30.8629 4 4 30.8629 4 64C4 97.1371 30.8629 124 64 124Z" fill="#002C77"/>
<path d="M64 114C91.6142 114 114 91.6142 114 64C114 36.3858 91.6142 14 64 14C36.3858 14 14 36.3858 14 64C14 91.6142 36.3858 114 64 114Z" fill="#00A8C8"/>
<path d="M84 110H44V92C44 90.9 44.9 90 46 90H82C83.1 90 84 90.9 84 92V110Z" fill="#0CAFE8"/>
<path d="M87 113H41L42 110H86L87 113Z" fill="#0B90D3"/>
<path d="M72 106H56C53.8 106 52 104.2 52 102V99C52 96.8 53.8 95 56 95H72C74.2 95 76 96.8 76 99V102C76 104.2 74.2 106 72 106Z" fill="white"/>
<path d="M69.3001 68.5H58.8V85H69.3001V68.5Z" fill="#F9A74E"/>
<path opacity="0.2" d="M69.2 68.5H66.2V85H69.2V68.5Z" fill="#382673"/>
<path d="M73 84H55C51.7 84 49 86.7 49 90H79C79 86.7 76.3 84 73 84Z" fill="#FFDE39"/>
<path d="M73 84H68C71.3 84 74 86.7 74 90H79C79 86.7 76.3 84 73 84Z" fill="#FEC632"/>
<path d="M69.1 77H58.9C56.2 77 54 74.8 54 72.1V71H74V72.1C74 74.8 71.8 77 69.1 77Z" fill="#FFDE39"/>
<path d="M70 71V72.1C70 74.8 68.8 77 66.1 77H69.1C71.8 77 74 74.8 74 72.1V71H70Z" fill="#FEC632"/>
<path d="M81 90H47C47 88.9 47.9 88 49 88H79C80.1 88 81 88.9 81 90Z" fill="#F9A74E"/>
<path opacity="0.2" d="M79 88H74C75.1 88 76 88.9 76 90H81C81 88.9 80.1 88 79 88Z" fill="#382673"/>
<path d="M76 69H52V72C52 73.1 52.9 74 54 74H74C75.1 74 76 73.1 76 72V69Z" fill="#F9A74E"/>
<path d="M76 69H52V72C52 73.1 52.9 74 54 74H74C75.1 74 76 73.1 76 72V69Z" fill="#F9A74E"/>
<path opacity="0.2" d="M71 69L69 72C70 72 70.1 74 69 74H74C75.1 74 76 73.1 76 72V69H71Z" fill="#382673"/>
<path d="M78 37H97V38C97 48.5 88.5 57 78 57" stroke="#F9A74E" stroke-width="4" stroke-miterlimit="10" stroke-linecap="round" stroke-linejoin="round"/>
<path d="M50 37H31V38C31 48.5 39.5 57 50 57" stroke="#FEC632" stroke-width="4" stroke-miterlimit="10" stroke-linecap="round" stroke-linejoin="round"/>
<path d="M72.5 72H55.5C49.1 72 44 66.9 44 60.5V29H84V60.5C84 66.9 78.9 72 72.5 72Z" fill="#FFDE39"/>
<path opacity="0.3" d="M50 32C50 32 50 49 50 52" stroke="white" stroke-width="2" stroke-miterlimit="10" stroke-linecap="round" stroke-linejoin="round"/>
<path d="M79 29V60.5C79 66.9 73.9 72 67.5 72H72.5C78.9 72 84 66.9 84 60.5V29H79Z" fill="#FEC632"/>
<path d="M87 29H41L44 32H84L87 29Z" fill="#F9A74E"/>
<path opacity="0.2" d="M81 29L79 32H84L87 29H81Z" fill="#382673"/>
<path d="M88 25H40C38.9 25 38 25.9 38 27C38 28.1 38.9 29 40 29H88C89.1 29 90 28.1 90 27C90 25.9 89.1 25 88 25Z" fill="#FFDE39"/>
<path d="M88 25H82C83.1 25 84 25.9 84 27C84 28.1 83.1 29 82 29H88C89.1 29 90 28.1 90 27C90 25.9 89.1 25 88 25Z" fill="#FEC632"/>
<path opacity="0.3" d="M50 56.4V58.7" stroke="white" stroke-width="2" stroke-miterlimit="10" stroke-linecap="round" stroke-linejoin="round"/>
<path d="M48.9 21.4L49.5 19.9C49.7 19.5 50.3 19.5 50.4 19.9L51 21.4C51.5 22.6 52.4 23.5 53.6 24L55.1 24.6C55.5 24.8 55.5 25.4 55.1 25.5L53.6 26.1C52.4 26.6 51.5 27.5 51 28.7L50.4 30.2C50.2 30.6 49.6 30.6 49.5 30.2L48.9 28.7C48.4 27.5 47.5 26.6 46.3 26.1L44.8 25.5C44.4 25.3 44.4 24.7 44.8 24.6L46.3 24C47.5 23.5 48.5 22.5 48.9 21.4Z" fill="white"/>
<path d="M63.9999 54.5L68.2999 56.8C68.9 57.1 69.6999 56.6 69.5999 55.9001L68.6999 51L72.1999 47.6C72.6999 47.1 72.3999 46.2 71.6999 46.1L66.8999 45.4001L64.6999 41C64.3999 40.4 63.4999 40.4 63.1999 41L60.9999 45.4001L56.1999 46.1C55.4999 46.2 55.1999 47.1 55.6999 47.6L59.1999 51L58.3999 55.8C58.2999 56.5 58.9999 57 59.6999 56.7001L63.9999 54.5Z" fill="#FEC632"/>
</svg>
