<svg width="401" height="466" viewBox="0 0 401 466" fill="none" xmlns="http://www.w3.org/2000/svg">
<path d="M274.951 326.298C274.956 326.266 274.956 326.233 274.951 326.201C274.949 326.16 274.949 326.119 274.951 326.078C274.951 326.078 274.951 326.031 274.951 326.001C274.964 326.087 274.981 326.172 275.002 326.257C274.991 326.276 274.973 326.291 274.951 326.298Z" fill="white"/>
<path d="M274.87 325.996C270.559 330.363 266.289 335.222 261.738 339.635C260.486 340.862 259.206 342.047 257.896 343.192C256.442 344.463 254.943 345.673 253.407 346.78C253.295 346.457 253.159 346.144 252.999 345.842C250.422 340.716 243.433 337.472 242.566 331.659C241.775 326.231 246.647 321.244 245.851 315.924C244.953 309.906 237.587 306.333 236.225 300.454C235.357 296.805 236.133 292.597 235.816 288.834C235.454 284.628 234.746 280.458 233.699 276.369C234.209 276.333 234.72 276.318 235.23 276.302C245.586 276.128 255.779 281.971 259.131 290.182C261.83 296.846 260.457 304.488 264.044 310.716C264.26 311.119 264.503 311.506 264.773 311.874C265.249 312.528 265.76 313.154 266.304 313.75L267.442 314.939C267.63 315.129 267.84 315.303 268.028 315.508C268.217 315.713 268.421 315.893 268.61 316.098C270.395 317.815 272.217 319.542 273.4 321.593C273.508 321.771 273.603 321.956 273.686 322.146C273.793 322.336 273.889 322.533 273.972 322.736C274.079 322.956 274.16 323.166 274.237 323.371C274.314 323.576 274.41 323.884 274.492 324.099C274.604 324.483 274.711 324.847 274.793 325.227C274.793 325.324 274.793 325.406 274.824 325.483C274.854 325.56 274.824 325.544 274.824 325.58C274.831 325.611 274.831 325.642 274.824 325.673C274.824 325.739 274.824 325.785 274.854 325.831V325.862C274.847 325.907 274.852 325.953 274.87 325.996Z" fill="white"/>
<path d="M274.936 326.313H274.951L274.936 326.329V326.313Z" fill="white"/>
<path d="M274.967 326.283C275.094 326.17 275.201 326.093 275.329 325.98C275.222 326.078 275.094 326.185 274.982 326.298C274.982 326.298 274.982 326.298 274.951 326.298L274.967 326.283Z" fill="white"/>
<path d="M311.224 301.049C311.114 302.836 311.114 304.628 311.224 306.416C308.112 307.179 305.046 308.02 302.041 309.035C300.174 309.655 298.342 310.337 296.511 311.116C291.429 313.187 286.645 315.927 282.282 319.266C283.233 317.637 283.902 315.859 284.262 314.007C284.262 313.93 284.292 313.848 284.308 313.756C285.098 309.916 285.16 305.883 286.961 302.213C290.312 295.447 300.113 290.541 310.372 290.224H310.561C311.494 290.224 312.443 290.224 313.392 290.27C312.33 293.785 311.604 297.395 311.224 301.049Z" fill="white"/>
<path d="M284.338 314.118C284.338 314.21 284.307 314.293 284.291 314.37C283.927 316.228 283.248 318.011 282.284 319.644C281.919 320.215 281.518 320.762 281.084 321.283C279.609 323.014 277.555 324.477 275.651 326.008C275.524 326.127 275.389 326.239 275.248 326.342C275.139 326.439 275.01 326.547 274.896 326.66C274.896 326.66 274.896 326.66 274.865 326.66C274.872 326.64 274.872 326.618 274.865 326.599C274.853 326.544 274.836 326.491 274.813 326.439C274.813 326.439 274.813 326.393 274.813 326.362C274.805 326.335 274.805 326.307 274.813 326.28V326.249C274.813 326.203 274.813 326.157 274.782 326.09C274.789 326.06 274.789 326.028 274.782 325.998C274.798 325.967 274.798 325.931 274.782 325.9C274.772 325.813 274.757 325.728 274.735 325.643C274.653 325.263 274.544 324.899 274.43 324.513C274.347 324.277 274.27 324 274.171 323.784C274.073 323.568 274.011 323.368 273.902 323.147C273.83 322.939 273.733 322.741 273.613 322.556C273.528 322.365 273.432 322.18 273.323 322.002C272.123 319.947 270.276 318.217 268.465 316.496C268.273 316.291 268.066 316.08 267.875 315.905C267.683 315.731 267.471 315.525 267.28 315.335L266.126 314.144C265.574 313.546 265.056 312.918 264.574 312.264C264.574 312.264 265.629 293.897 275.103 288.315C284.048 283.03 284.338 311.016 284.338 314.118Z" fill="white"/>
<path d="M274.682 326.226V326.303C274.687 326.271 274.687 326.238 274.682 326.206C274.679 326.165 274.679 326.124 274.682 326.083C274.682 326.083 274.682 326.037 274.682 326.006C274.679 326.08 274.679 326.153 274.682 326.226Z" fill="white"/>
<path d="M306.431 296.173L301.862 309.047C299.988 309.666 298.149 310.346 296.311 311.123C299.245 305.427 302.605 300.278 306.431 296.173V296.173Z" fill="white"/>
<path d="M274.733 326.323C274.733 326.221 274.717 326.119 274.687 326.022C274.718 326.211 274.733 326.323 274.733 326.323Z" fill="white"/>
<path d="M239.993 283.232C250.236 296.49 257.038 319.022 261.432 339.591C260.176 340.815 258.89 341.998 257.576 343.14L239.993 283.232Z" fill="white"/>
<path d="M276.162 305.585C274.113 311.828 274.037 318.132 274.277 322.126C274.339 323.416 274.476 324.701 274.687 325.976L276.162 305.585Z" fill="white"/>
<path fill-rule="evenodd" clip-rule="evenodd" d="M274.747 326.481C274.752 326.449 274.752 326.416 274.747 326.384C274.744 326.343 274.744 326.302 274.747 326.261C274.747 326.261 274.747 326.215 274.747 326.184C274.76 326.27 274.777 326.356 274.798 326.44C274.787 326.459 274.768 326.474 274.747 326.481Z" stroke="#ECECEC" stroke-width="4.65"/>
<path fill-rule="evenodd" clip-rule="evenodd" d="M274.665 326.179C270.344 330.537 266.064 335.385 261.503 339.789C260.249 341.013 258.965 342.196 257.653 343.339C256.195 344.607 254.692 345.814 253.153 346.919C253.041 346.597 252.904 346.284 252.744 345.983C250.162 340.868 243.156 337.631 242.287 331.831C241.494 326.414 246.378 321.438 245.58 316.129C244.68 310.124 237.296 306.559 235.931 300.693C235.062 297.051 235.839 292.852 235.522 289.098C235.159 284.9 234.449 280.74 233.4 276.659C233.911 276.623 234.422 276.608 234.934 276.593C245.314 276.419 255.531 282.249 258.89 290.443C261.595 297.092 260.22 304.718 263.815 310.932C264.031 311.334 264.275 311.721 264.546 312.088C265.022 312.74 265.534 313.365 266.08 313.96L267.22 315.147C267.409 315.336 267.619 315.51 267.808 315.714C267.997 315.919 268.202 316.098 268.391 316.303C270.181 318.016 272.006 319.74 273.193 321.785C273.3 321.963 273.396 322.148 273.479 322.338C273.587 322.528 273.682 322.724 273.765 322.926C273.873 323.146 273.955 323.356 274.031 323.56C274.108 323.765 274.205 324.072 274.287 324.287C274.399 324.67 274.507 325.033 274.589 325.412C274.589 325.509 274.589 325.591 274.619 325.667C274.65 325.744 274.619 325.729 274.619 325.765C274.627 325.795 274.627 325.826 274.619 325.857C274.619 325.923 274.619 325.969 274.65 326.015V326.046C274.642 326.091 274.648 326.137 274.665 326.179V326.179Z" stroke="#ECECEC" stroke-width="4.65"/>
<path d="M284.079 314.231C283.717 316.075 283.046 317.844 282.095 319.464C281.734 320.032 281.338 320.577 280.909 321.095C279.452 322.819 277.421 324.277 275.54 325.801C275.414 325.92 275.281 326.031 275.141 326.133C275.013 326.246 274.906 326.322 274.778 326.435" stroke="#ECECEC" stroke-width="4.65"/>
<path d="M311.088 306.641C310.978 304.858 310.978 303.069 311.088 301.286C311.47 297.645 312.198 294.048 313.262 290.545C312.311 290.484 311.36 290.484 310.424 290.499H310.235C299.951 290.816 290.128 295.711 286.769 302.462C284.964 306.124 284.902 310.134 284.11 313.981" stroke="#ECECEC" stroke-width="4.65"/>
<path d="M284.084 314.236C284.084 314.155 284.115 314.078 284.13 313.981" stroke="#ECECEC" stroke-width="4.65"/>
<path fill-rule="evenodd" clip-rule="evenodd" d="M284.125 313.96C284.125 314.052 284.094 314.134 284.079 314.211C283.719 316.061 283.048 317.837 282.095 319.463C281.734 320.032 281.338 320.576 280.909 321.095C279.451 322.819 277.421 324.276 275.54 325.8C275.414 325.919 275.28 326.03 275.141 326.133C275.033 326.23 274.906 326.337 274.793 326.45C274.793 326.45 274.793 326.45 274.762 326.45C274.769 326.43 274.769 326.408 274.762 326.389C274.751 326.334 274.734 326.281 274.711 326.23C274.711 326.23 274.711 326.184 274.711 326.153C274.704 326.127 274.704 326.098 274.711 326.071V326.041C274.711 325.995 274.711 325.949 274.681 325.882C274.688 325.852 274.688 325.82 274.681 325.79C274.696 325.76 274.696 325.723 274.681 325.693C274.671 325.607 274.656 325.521 274.635 325.437C274.553 325.059 274.445 324.696 274.333 324.312C274.251 324.077 274.174 323.801 274.077 323.586C273.98 323.371 273.919 323.171 273.811 322.951C273.74 322.745 273.644 322.547 273.525 322.363C273.442 322.173 273.346 321.989 273.239 321.811C272.052 319.765 270.227 318.041 268.437 316.328C268.248 316.123 268.043 315.914 267.854 315.74C267.665 315.566 267.455 315.361 267.266 315.172L266.126 313.986C265.58 313.39 265.068 312.765 264.592 312.114C264.592 312.114 265.635 293.824 274.998 288.264C283.839 283.001 284.125 310.871 284.125 313.96V313.96Z" stroke="#ECECEC" stroke-width="4.65"/>
<path d="M284.084 314.236C284.084 314.155 284.115 314.078 284.13 313.981" stroke="#ECECEC" stroke-width="4.65"/>
<path fill-rule="evenodd" clip-rule="evenodd" d="M274.732 326.419V326.496C274.737 326.464 274.737 326.431 274.732 326.399C274.729 326.358 274.729 326.317 274.732 326.276C274.732 326.276 274.732 326.23 274.732 326.199C274.728 326.273 274.728 326.346 274.732 326.419Z" stroke="#ECECEC" stroke-width="4.65"/>
<path d="M306.43 296.356C302.61 300.447 299.271 305.613 296.326 311.331" stroke="#ECECEC" stroke-width="4.65"/>
<path fill-rule="evenodd" clip-rule="evenodd" d="M274.783 326.516C274.783 326.414 274.767 326.312 274.737 326.215C274.767 326.404 274.783 326.516 274.783 326.516Z" stroke="#ECECEC" stroke-width="4.65"/>
<path d="M240.098 283.41C250.325 296.673 257.116 319.213 261.503 339.789" stroke="#ECECEC" stroke-width="4.65"/>
<path d="M276.21 305.771C274.164 312.016 274.088 318.323 274.328 322.317C274.39 323.608 274.526 324.894 274.737 326.169" stroke="#ECECEC" stroke-width="4.65"/>
<path d="M384.978 158.547C391.487 182.934 398.201 209.208 397.649 234.274C397.061 260.691 383.613 282.863 359.518 294.116C343.835 301.435 326.976 302.78 311.088 306.631C307.969 307.393 304.896 308.232 301.884 309.245C300.013 309.863 298.177 310.544 296.341 311.321C291.253 313.392 286.462 316.13 282.095 319.464C280.494 320.686 278.957 321.992 277.493 323.376C276.573 324.246 275.657 325.151 274.737 326.087C273.816 327.023 274.737 326.118 274.706 326.133C274.675 326.148 274.706 326.133 274.706 326.133C270.385 330.491 266.105 335.339 261.544 339.743C260.29 340.967 259.006 342.15 257.694 343.293C256.236 344.561 254.733 345.768 253.194 346.873C247.999 350.658 242.266 353.46 235.66 354.284C232.741 354.658 229.806 354.881 226.865 354.954C226.818 354.969 226.768 354.969 226.721 354.954" stroke="#ECECEC" stroke-width="4.65"/>
<path d="M124.8 19.7465C124.8 19.7465 94.4464 12.8162 69.1808 21.3576C66.0333 22.3949 62.9839 23.7094 60.0686 25.2857C45.7509 33.0343 34.9462 47.5957 35.7388 74.0434C36.1632 87.8528 35.3553 101.473 32.6349 114.689C31.7452 118.979 30.6458 123.224 29.3367 127.425C26.1302 137.696 21.5019 147.468 15.5866 156.455C-3.25136 185.026 -0.398047 214.721 20.4956 242.258C21.5898 243.7 22.7148 245.127 23.8704 246.524" stroke="#ECECEC" stroke-width="4.65"/>
<rect x="120.505" y="6.79565" width="264.733" height="254.331" rx="76.3" fill="#002C77"/>
<rect x="116.344" y="3.15503" width="268.894" height="257.972" rx="81.37" stroke="#009DE0" stroke-width="4.65"/>
<rect x="125.706" y="11.9968" width="254.331" height="243.929" rx="76.3" fill="#002C77"/>
<path fill-rule="evenodd" clip-rule="evenodd" d="M296.419 24.9993H349.717C356.976 24.9993 362.874 31.3115 362.874 39.0792V162.239C362.874 170.022 356.976 176.35 349.717 176.35H296.419C289.175 176.35 283.298 170.022 283.298 162.239V39.0792C283.298 31.3115 289.175 24.9993 296.419 24.9993ZM349.307 172.545C354.706 172.528 359.079 168.165 359.098 162.775V38.5736C359.084 33.1802 354.71 28.8106 349.307 28.7937H296.864C291.458 28.8105 287.078 33.1768 287.053 38.5736V162.765C287.078 168.162 291.458 172.528 296.864 172.545H349.307Z" fill="#D7E8F0"/>
<path fill-rule="evenodd" clip-rule="evenodd" d="M295.899 190.913H349.197C356.456 190.913 362.354 197.209 362.354 204.957V223.642C362.354 231.411 356.456 237.722 349.197 237.722H295.899C288.66 237.722 282.778 231.411 282.778 223.642V204.957C282.778 197.209 288.66 190.913 295.899 190.913ZM348.788 233.932C354.189 233.918 358.564 229.561 358.578 224.182V204.453C358.564 199.073 354.19 194.715 348.788 194.698H296.344C290.938 194.715 286.558 199.07 286.533 204.453V224.182C286.558 229.565 290.939 233.918 296.344 233.932H348.788Z" fill="#D7E8F0"/>
<path d="M229.63 204.436L151.704 203.321C149.959 203.293 148.565 201.893 148.591 200.19C148.59 199.907 148.631 199.625 148.714 199.354C149.127 198.033 150.385 197.136 151.801 197.154L229.727 198.259C229.144 199.142 228.818 200.162 228.783 201.21C228.741 202.343 229.035 203.463 229.63 204.436Z" fill="#002C77"/>
<path d="M248.823 202.217C248.416 203.535 247.169 204.436 245.754 204.435L240.129 204.356C241.359 202.486 241.397 200.1 240.226 198.194L245.851 198.274C247.597 198.309 248.988 199.704 248.971 201.402C248.961 201.679 248.911 201.954 248.823 202.217Z" fill="#D7E8F0"/>
<path d="M248.328 215.224C247.923 216.546 246.676 217.447 245.267 217.438L167.835 216.328C169.31 214.604 169.642 212.203 168.687 210.156L245.338 211.226C247.081 211.259 248.471 212.662 248.451 214.369C248.453 214.659 248.412 214.947 248.328 215.224Z" fill="#D7E8F0"/>
<path d="M158.473 215.878L151.642 215.778C149.938 215.754 148.574 214.365 148.591 212.67C148.594 212.383 148.636 212.098 148.716 211.821C149.109 210.508 150.334 209.615 151.712 209.637L157.799 209.731C157.443 210.466 157.242 211.265 157.209 212.08C157.159 213.455 157.607 214.803 158.473 215.878Z" fill="#002C77"/>
<path d="M224.006 229.4L151.704 228.362C149.963 228.324 148.576 226.912 148.591 225.193C148.593 224.912 148.637 224.634 148.724 224.366C149.126 223.03 150.373 222.115 151.786 222.119L223.98 223.167C222.778 225.075 222.778 227.492 223.98 229.4H224.006Z" fill="#002C77"/>
<path d="M248.864 227.609C248.461 228.993 247.214 229.936 245.807 229.92L234.467 229.769L224.386 229.627C223.186 227.647 223.186 225.139 224.386 223.159L234.656 223.316L245.863 223.483C247.599 223.512 248.988 224.974 248.971 226.757C248.974 227.045 248.938 227.332 248.864 227.609Z" fill="#D7E8F0"/>
<path d="M240.226 204.798C238.612 207.321 235.379 208.261 232.664 206.996C229.948 205.732 228.587 202.653 229.479 199.794C230.371 196.934 233.241 195.176 236.194 195.68C239.147 196.183 241.272 198.794 241.165 201.788C241.128 202.857 240.804 203.897 240.226 204.798Z" fill="white"/>
<path opacity="0.72" d="M238.041 201.068C237.902 201.789 237.553 202.456 237.036 202.989C236.785 203.26 236.51 203.511 236.216 203.737C236.053 203.85 235.206 204.51 235.043 204.428C233.927 203.88 232.523 202.502 232.349 201.155C232.32 200.945 232.32 200.731 232.349 200.52C232.477 199.771 233.147 199.224 233.927 199.235C234.429 199.252 234.892 199.502 235.174 199.906C235.494 199.53 235.972 199.317 236.473 199.327C236.924 199.342 237.347 199.537 237.644 199.867C237.941 200.197 238.085 200.632 238.041 201.068Z" fill="#002C77"/>
<path d="M167.992 216.328C166.838 217.715 165.121 218.505 163.319 218.478C161.518 218.45 159.825 217.607 158.714 216.185C157.836 215.08 157.382 213.696 157.437 212.284C157.47 211.447 157.675 210.625 158.037 209.871C159.08 207.746 161.272 206.433 163.633 206.52C165.905 206.592 167.935 207.962 168.857 210.044C169.81 212.133 169.479 214.584 168.008 216.344L167.992 216.328Z" fill="white"/>
<path opacity="0.72" d="M166.261 211.985C166.119 212.707 165.769 213.373 165.253 213.906C165.006 214.182 164.732 214.433 164.434 214.656C164.276 214.769 163.426 215.437 163.268 215.35C162.155 214.805 160.753 213.424 160.575 212.068C160.546 211.856 160.546 211.642 160.575 211.431C160.685 210.815 161.165 210.326 161.788 210.192C162.412 210.058 163.057 210.306 163.42 210.819C163.849 210.236 164.633 210.021 165.31 210.299C165.987 210.578 166.377 211.278 166.25 211.985H166.261Z" fill="#002C77"/>
<path d="M234.479 229.831C233 232.068 230.218 233.051 227.665 232.239C225.112 231.426 223.407 229.015 223.489 226.333C223.526 225.287 223.834 224.268 224.381 223.377C225.522 221.548 227.555 220.475 229.706 220.564C231.857 220.653 233.795 221.891 234.782 223.808C235.768 225.724 235.653 228.023 234.479 229.831Z" fill="white"/>
<path opacity="0.72" d="M232.315 226.023C232.174 226.746 231.824 227.415 231.307 227.95C231.06 228.226 230.786 228.477 230.488 228.7C230.33 228.813 229.48 229.475 229.322 229.393C228.209 228.844 226.807 227.467 226.628 226.111C226.599 225.899 226.599 225.685 226.628 225.474C226.739 224.858 227.218 224.369 227.842 224.235C228.466 224.101 229.11 224.349 229.474 224.862C229.903 224.281 230.685 224.066 231.361 224.343C232.037 224.62 232.428 225.317 232.305 226.023H232.315Z" fill="#002C77"/>
<path d="M148.072 40.0743L148.205 58.5922C148.277 65.3037 153.642 70.7645 160.367 70.9699L178.741 71.2871C181.933 71.336 185.008 70.0922 187.265 67.8397C189.522 65.5873 190.768 62.5185 190.718 59.3341L190.579 40.8162C190.513 34.1053 185.147 28.6438 178.423 28.4436L160.049 28.1213C156.857 28.0724 153.781 29.3162 151.524 31.5687C149.267 33.8211 148.022 36.8899 148.072 40.0743Z" fill="white"/>
<path d="M150.671 44.4446L150.768 57.749C150.831 63.5319 155.478 68.2362 161.3 68.4128L177.214 68.687C179.978 68.7285 182.642 67.6571 184.599 65.7171C186.555 63.7771 187.637 61.1336 187.598 58.3888V57.49C185.362 52.9503 181.009 46.1559 176.344 50.2183C169.648 56.058 166.584 51.6148 162.682 45.8817C159.423 41.083 154.467 37.5792 150.671 44.4446Z" fill="#002C77"/>
<ellipse rx="4.39257" ry="4.50983" transform="matrix(0.832922 -0.553391 0.553392 0.832921 178.259 38.891)" fill="#002C77"/>
<path d="M254.731 47.3645C248.857 47.3625 243.616 51.0488 241.647 56.5694C239.677 62.09 241.404 68.2497 245.959 71.9503L209.599 145.871C209.375 145.836 209.149 145.813 208.923 145.805C208.343 145.812 207.767 145.902 207.212 146.07L183.558 116.754C185.718 113.781 185.859 109.799 183.915 106.68C181.971 103.562 178.329 101.927 174.699 102.544C171.07 103.161 168.176 105.908 167.378 109.493C166.58 113.077 168.036 116.788 171.062 118.879L154.485 165.936C151.505 166.114 149.064 168.363 148.651 171.313C148.239 174.262 149.969 177.093 152.786 178.078C155.603 179.063 158.726 177.929 160.25 175.368C161.774 172.807 161.275 169.53 159.058 167.535L175.635 120.473C175.84 120.473 176.04 120.504 176.245 120.504C177.477 120.504 178.697 120.253 179.829 119.768L203.479 149.074C202.981 149.975 202.717 150.987 202.711 152.016C202.646 154.288 203.823 156.415 205.786 157.571C207.748 158.726 210.184 158.726 212.147 157.571C214.109 156.415 215.287 154.288 215.222 152.016C215.218 150.628 214.745 149.282 213.88 148.195L250.24 74.2745C255.464 76.1095 261.282 74.6715 265.043 70.6156C268.804 66.5598 269.788 60.6622 267.548 55.6098C265.307 50.5573 260.27 47.3168 254.731 47.3645Z" fill="#D7E8F0"/>
<path d="M298.472 73.9561H346.853" stroke="white" stroke-width="4.65"/>
<path d="M298.472 81.4419H346.853" stroke="white" stroke-width="4.65"/>
<path d="M298.472 88.9229H346.853" stroke="white" stroke-width="4.65"/>
<path d="M298.472 96.4041H346.853" stroke="white" stroke-width="4.65"/>
<path d="M298.472 103.89H346.853" stroke="white" stroke-width="4.65"/>
<path d="M298.472 147.591H346.853" stroke="white" stroke-width="4.65"/>
<path d="M298.472 154.194H346.853" stroke="white" stroke-width="4.65"/>
<path d="M336.895 205.133C337.883 205.957 338.447 207.187 338.428 208.478L338.316 223.549C338.308 224.698 337.845 225.796 337.03 226.601C336.215 227.407 335.114 227.852 333.972 227.84L311.485 227.645C309.11 227.622 307.203 225.67 307.223 223.282L307.356 208.201C307.444 205.842 309.347 203.963 311.695 203.915L334.181 204.111C335.178 204.119 336.139 204.481 336.895 205.133Z" fill="white"/>
<path d="M333.484 207.518L322.887 216.737C322.607 216.978 322.196 216.978 321.916 216.737L311.128 207.325C310.884 207.117 310.798 206.774 310.915 206.473C311.032 206.172 311.326 205.98 311.645 205.997L333.029 206.19C333.337 206.201 333.606 206.402 333.707 206.696C333.808 206.991 333.719 207.317 333.484 207.518Z" fill="#002C77"/>
<path fill-rule="evenodd" clip-rule="evenodd" d="M323.572 115.942C318.985 115.938 314.848 118.696 313.09 122.929C311.332 127.163 312.299 132.038 315.541 135.281C318.783 138.523 323.66 139.495 327.898 137.741C332.136 135.988 334.899 131.856 334.899 127.272C334.9 124.269 333.708 121.387 331.583 119.262C329.459 117.138 326.577 115.943 323.572 115.942ZM323.572 135.883C322.656 135.883 321.914 135.141 321.914 134.226C321.914 133.311 322.656 132.57 323.572 132.57C324.487 132.57 325.229 133.311 325.229 134.226C325.229 135.141 324.487 135.883 323.572 135.883ZM325.521 124.093C325.565 123.774 325.609 123.457 325.654 123.141V123.12C325.678 122.934 325.71 122.74 325.743 122.543C325.927 121.425 326.132 120.185 324.989 119.572C323.935 118.963 322.067 119.102 321.407 120.272C320.808 121.293 321.17 122.86 321.464 124.135C321.544 124.482 321.619 124.807 321.668 125.094C321.94 126.942 322.337 128.77 322.855 130.565C322.994 130.829 323.268 130.995 323.567 130.995C323.865 130.995 324.139 130.829 324.278 130.565C324.915 128.488 325.223 126.26 325.521 124.093Z" fill="white"/>
<ellipse cx="254.866" cy="61.3594" rx="10.1812" ry="10.1751" fill="white"/>
<ellipse cx="323.49" cy="43.3817" rx="3.40227" ry="3.40021" fill="white"/>
<path d="M313.989 58.7568C313.989 53.5128 318.243 49.2617 323.49 49.2617C328.737 49.2617 332.99 53.5128 332.99 58.7568H313.989Z" fill="white"/>
<path d="M258.054 383.771C258.049 385.353 257.065 386.766 255.583 387.32L219.948 400.614C219.948 400.614 218.25 397.464 215.287 392.203L194.935 358.175C189.435 386.451 183.301 414.762 179.5 432.407L175.836 449.976L190.52 454.803C192.336 455.241 193.619 456.862 193.625 458.729C193.623 459.977 193.047 461.153 192.063 461.921C191.079 462.688 189.797 462.961 188.586 462.661L154.553 454.041V445.727L153.745 445.568L154.446 348.588L121.19 340.729C117.021 342.028 112.615 343.219 108.113 344.186C108.065 344.192 108.017 344.203 107.97 344.216C97.0424 347.079 85.6282 347.571 74.4947 345.658C74.3975 345.658 74.2849 345.612 74.1928 345.592C73.3845 345.438 72.5761 345.259 71.7831 345.08C71.5426 345.034 71.3073 344.988 71.0668 344.922C70.371 344.763 69.6752 344.559 68.9794 344.37C68.5957 344.257 68.2171 344.165 67.8539 344.053C67.4906 343.94 67.2195 343.848 66.9023 343.736C60.9099 341.856 55.3757 338.747 50.6532 334.609C47.0321 331.57 43.9618 327.931 41.5771 323.851C40.5538 322.235 39.5971 320.538 38.7069 318.794C33.3042 308.133 32.1786 304.508 33.7493 304.411C30.2903 303.193 26.9394 301.688 23.7318 299.911C23.7318 299.911 16.6612 258.674 32.0814 217.171C31.7863 214.604 31.8396 212.008 32.24 209.455C35.4888 186.17 53.3699 162.236 74.7045 152.541C86.134 147.347 104.772 139.375 98.7506 123.504C96.8474 118.483 94.146 114.157 93.6344 108.947C93.5883 108.436 93.527 107.981 93.4911 107.475C92.6367 95.2031 99.7841 83.5503 111.357 79.3525C119.018 76.4698 127.55 77.0288 134.769 80.8864C136.001 81.5365 137.107 82.4024 138.033 83.4429C141.553 83.535 145.973 84.1537 148.05 85.12C151.57 86.7665 154.389 89.6503 156.497 92.8971C160.385 98.9491 161.947 106.204 160.892 113.319C160.286 117.256 158.883 121.028 156.768 124.404C155.725 126.096 154.515 127.678 153.156 129.129C151.964 130.376 150.271 132.196 148.639 132.866C148.676 132.896 148.729 132.896 148.767 132.866L148.291 140.469C158.063 138.245 184.171 129.083 203.31 91.2507C204.692 88.3209 206.114 85.4064 207.608 82.5226C212.028 73.9377 216.766 65.3988 223.044 58.0155C224.578 56.2259 226.85 54.6102 229.29 55.3873C231.429 56.0674 232.872 58.4552 231.383 60.4595L221.11 74.4899L224.389 74.0655C225.113 74.2402 225.722 74.7247 226.056 75.3899C226.389 76.055 226.412 76.8332 226.118 77.5169L224.041 82.4459L225.024 81.2903C226.428 79.6331 228.89 79.3776 230.604 80.7113C232.319 82.045 232.676 84.493 231.414 86.2603L226.001 93.2499C225.276 94.1729 224.355 94.9238 223.304 95.4485L212.591 100.613C215.76 104.505 218.706 108.573 221.417 112.797C215.534 124.065 208.638 134.776 200.814 144.795C187.624 161.776 168.633 180.756 145.446 188.691C144.935 202.727 142.453 216.634 138.601 230.24H173.708L182.457 206.382C183.28 204.127 185.427 202.628 187.829 202.629H222.798C223.406 202.631 224.009 202.749 224.573 202.977C226.326 203.701 227.471 205.407 227.474 207.303C227.468 207.871 227.361 208.434 227.157 208.965L224.839 214.988H224.763H214.904L210.893 226.472L212.033 223.573H216.965C218.534 223.572 219.999 224.357 220.868 225.662C221.737 226.967 221.895 228.62 221.289 230.066L217.088 240.108C214.515 246.254 208.983 250.662 202.415 251.802L201.97 251.879L201.146 254.313L201.571 253.474C201.433 253.806 201.274 254.169 201.131 254.568H212.192C212.192 254.568 209.736 261.727 205.219 262.156C204.854 262.185 204.486 262.173 204.124 262.12H181.203C182.487 263.547 183.93 265.275 185.47 267.305C192.121 267.208 201.796 267.919 204.19 272.561C204.602 273.023 204.979 273.515 205.316 274.034C206.232 275.568 206.534 279.147 206.314 284.316C206.378 289.647 205.931 294.972 204.978 300.218C206.138 302.393 207.253 304.58 208.324 306.778C210.653 311.128 212.754 315.596 214.617 320.164C214.681 320.285 214.734 320.412 214.776 320.543C220.361 333.342 225.261 346.43 229.454 359.75L229.689 360.573C232.862 369.92 235.445 378.413 236.428 383.582L253.055 380.177C254.212 379.793 255.483 379.987 256.473 380.699C257.462 381.41 258.05 382.553 258.054 383.771Z" fill="white"/>
<path d="M200.455 255.386H211.512C211.059 256.633 210.481 257.832 209.789 258.964C208.423 261.101 206.316 263.335 203.529 262.957H169.984C168.68 262.966 167.41 262.541 166.373 261.75C166.143 260.688 166.209 259.583 166.562 258.555C180.11 256.48 193.991 254.246 200.199 252.963L201.371 252.758L200.455 255.386Z" fill="#002C77"/>
<path d="M226.789 208.19C226.783 208.759 226.675 209.321 226.472 209.852L224.16 215.869H214.3L210.249 227.422L208.776 231.113H176.637L184.084 210.838C184.912 208.585 187.058 207.087 189.459 207.086H224.411C225.019 207.087 225.622 207.205 226.185 207.434C226.381 207.514 226.572 207.604 226.758 207.705C226.774 207.858 226.789 208.032 226.789 208.19Z" fill="#002C77"/>
<path d="M226.794 208.185C226.787 208.754 226.68 209.316 226.477 209.847L224.16 215.864H214.305L217.731 206.57C218.513 204.443 220.708 203.183 222.94 203.58C225.172 203.978 226.797 205.919 226.794 208.185Z" fill="#002C77"/>
<path d="M211.507 255.386C211.507 255.386 208.336 264.7 202.577 262.696C198.997 261.464 199.534 257.901 200.47 255.365L211.507 255.386Z" fill="#002C77"/>
<path d="M203.202 215.618H187.078" stroke="white" stroke-width="4.65" stroke-linecap="round" stroke-linejoin="round"/>
<path d="M201.641 221.859H185.518" stroke="white" stroke-width="4.65" stroke-linecap="round" stroke-linejoin="round"/>
<path d="M214.158 320.635C211.374 313.907 208.126 307.381 204.438 301.102C205.932 293.194 206.95 279.34 203.711 273.052C201.317 268.405 191.653 267.7 184.981 267.797C179.829 260.993 175.665 257.486 175.665 257.486C175.665 257.486 144.651 262.506 137.571 262.547C130.49 262.588 130.495 266.509 130.495 266.509C130.495 266.509 125.563 281.38 119.987 288.767C114.41 296.153 99.4099 305.125 77.7945 308.581C56.1791 312.037 39.1784 307.778 35.2799 305.611C31.3815 303.443 31.2536 305.534 38.2319 319.27C45.2102 333.006 55.954 342.883 73.9984 346.139C85.128 348.054 96.5392 347.562 107.463 344.697C107.463 344.697 136.015 337.505 144.39 332.019C152.765 326.534 154.075 333.993 154.075 333.993L153.257 446.038L175.358 450.445L194.451 358.669L214.813 392.715L235.968 384.024C233.477 370.953 220.681 336.482 214.158 320.635Z" fill="#009DE0"/>
<path d="M156.304 170.9C155.854 174 154.538 176.908 152.508 179.29C150.948 181.287 148.964 182.909 146.699 184.04C146.167 184.297 145.615 184.509 145.047 184.671C145.047 182.905 145.017 181.108 144.92 179.356C144.559 172.794 143.238 165.962 139.066 160.917C137.058 158.506 134.525 156.59 131.661 155.317C131.742 154.105 131.839 152.904 131.915 151.692C132.134 149.62 132.123 147.53 131.885 145.461C131.615 144.205 131.462 142.926 131.427 141.642C131.473 140.446 131.3 135.854 132.245 134.861C133.823 135.52 135.512 135.865 137.221 135.879C141.048 135.849 144.087 133.497 146.135 130.488C146.888 130.241 147.671 130.097 148.462 130.06C150.78 130.406 143.863 136.653 146.12 135.945C144.651 136.399 143.578 138.608 142.887 139.871C141.871 141.826 141.281 144.127 142.277 146.194C143.253 148.169 145.296 149.869 146.745 151.493C148.697 153.547 150.524 155.718 152.213 157.995C154.886 161.721 156.838 166.298 156.304 170.9Z" fill="#002C77"/>
<path d="M120.843 152.556C124.506 152.784 128.099 153.664 131.453 155.155C134.333 156.436 136.882 158.361 138.901 160.782C143.101 165.856 144.432 172.715 144.795 179.309C144.892 181.084 144.938 182.889 144.923 184.649C144.846 200.261 142.247 215.709 137.981 230.814H176.605H208.763L210.236 227.126L211.412 224.159H216.375C217.945 224.159 219.411 224.944 220.28 226.25C221.15 227.557 221.309 229.212 220.703 230.66L216.503 240.706C213.923 246.851 208.391 251.258 201.826 252.4L201.38 252.482L200.209 252.686C193.998 253.97 180.114 256.206 166.562 258.282C154.167 260.2 142.042 261.975 136.308 262.799C134.134 263.116 131.913 263.351 129.657 263.495C116.269 264.318 102.446 261.341 98.8653 246.103C96.5325 236.343 97.0441 225.821 97.1515 215.663" stroke="#002C77" stroke-width="4.65"/>
<path d="M184.938 268.303C193.604 267.904 201.37 269.188 204.701 274.61C206.379 277.352 205.969 287.019 204.24 300.503" stroke="#009DE0" stroke-width="4.65"/>
<path d="M39.7574 322.233C39.7761 322.256 39.7916 322.282 39.8035 322.309C43.5124 329.87 50.035 336.397 58.3789 340.965C87.7793 357.047 132 338.202 147.905 330.361C149.195 329.726 150.722 329.802 151.943 330.563C153.163 331.324 153.903 332.662 153.901 334.1V454.701L187.926 463.32C188.99 463.593 190.12 463.42 191.054 462.841C191.988 462.262 192.645 461.326 192.873 460.251C193.339 458.101 192 455.973 189.86 455.463L175.182 450.629C175.863 445.862 185.818 402.265 194.28 358.796" stroke="#002C77" stroke-width="4.65"/>
<path d="M174.86 256.978C183.557 264.344 189.803 275.669 195.651 285.29C209.898 308.733 220.554 334.248 228.832 360.356C231.333 368.244 233.635 376.213 235.809 384.182L252.425 380.771C254.387 380.133 256.498 381.178 257.181 383.124C257.863 385.07 256.867 387.205 254.937 387.932L219.306 401.231C219.306 401.231 208.88 381.758 194.31 358.775C172.957 325.056 133.499 273.086 123.083 284.17" stroke="#002C77" stroke-width="4.65"/>
<path d="M143.777 141.589C143.777 141.589 178.717 139.17 202.67 91.7571C202.67 91.7571 210.241 96.9797 220.795 113.318C220.795 113.318 191.185 173.406 144.795 189.263" stroke="#002C77" stroke-width="4.65"/>
<path d="M140.789 86.3716L142.811 89.4841L144.029 91.3783C145.265 94.2941 146.351 97.2724 147.284 100.301L147.345 100.516L149.66 109.475C149.664 109.485 149.664 109.496 149.66 109.506C150.438 110.803 151.511 111.893 152.789 112.685C153.091 112.85 153.373 113.051 153.628 113.284C155.018 114.697 151.353 115.107 150.595 115.572C149.916 116.044 149.507 116.822 149.498 117.656C145.146 135.999 147.946 131.181 146.076 135.261C147.699 133.869 151.732 129.441 151.732 129.441C152.238 129.108 152.713 128.11 153.041 127.613C154.085 125.991 154.983 124.278 155.725 122.494C158.032 117.165 158.564 111.221 157.242 105.559C155.154 96.7587 150.287 87.9535 140.789 86.3716L140.789 86.3716Z" fill="#002C77"/>
<path d="M140.144 91.6035C139.77 93.5077 138.869 95.268 137.544 96.6832C136.106 98.26 134.431 99.6024 132.58 100.662C129.097 102.741 125.22 104.313 122.294 107.119C119.364 109.944 117.61 113.777 117.386 117.847C117.182 122.015 118.668 126.332 119.572 130.234C122.437 142.846 121.518 154.967 119.934 167.661C118.433 179.638 115.236 191.359 109.036 201.785C101.722 214.075 89.7148 223.912 76.201 228.961C64.9651 233.165 43.1316 236.893 34.8732 225.197C33.4483 221.505 33.433 217.28 33.9846 213.302C37.2277 189.962 55.0775 166.007 76.3747 156.298C87.7843 151.096 106.39 143.102 100.379 127.202C98.4635 122.189 95.7822 117.862 95.2715 112.624C95.2255 112.148 95.1796 111.671 95.1336 111.164C94.2756 98.8748 101.41 87.2099 112.963 83.0007C120.609 80.1056 129.13 80.6657 136.334 84.5369C137.598 85.2117 138.729 86.1103 139.674 87.1894C139.739 87.2626 139.797 87.3415 139.848 87.425C139.919 87.6064 139.977 87.793 140.021 87.9831C140.303 89.1695 140.345 90.4006 140.144 91.6035Z" fill="#002C77"/>
<path d="M144.85 184.417C151.032 182.989 156.457 178.564 158.007 172.098C159.45 166.108 157.168 159.959 153.632 155.141C150.351 150.69 143.519 146.956 144.057 140.643C144.231 138.597 145.244 136.807 146.564 135.221C147.04 134.668 147.532 134.157 148.069 133.635" stroke="#002C77" stroke-width="4"/>
<path d="M132.102 134.76L131.816 155.647" stroke="#002C77" stroke-width="4"/>
<path fill-rule="evenodd" clip-rule="evenodd" d="M98.0198 124.289C96.111 119.276 93.4141 114.953 92.9023 109.725C92.8512 109.244 92.8051 108.763 92.7693 108.252C91.9044 95.9747 99.0587 84.3267 110.629 80.1167C118.293 77.227 126.831 77.7865 134.052 81.6513C135.315 82.3279 136.446 83.2273 137.389 84.3063L137.629 84.5979C139.32 86.6632 140.035 89.3585 139.589 91.9898C139.217 93.8867 138.32 95.6412 137 97.0541C135.553 98.6322 133.872 99.9781 132.015 101.044C128.525 103.121 124.646 104.681 121.704 107.485C118.766 110.315 117.014 114.155 116.801 118.227C116.591 122.391 118.086 126.698 118.976 130.607C121.847 143.206 120.931 155.309 119.344 167.986C117.84 179.951 114.641 191.665 108.419 202.08C101.09 214.358 89.0642 224.19 75.5182 229.228C64.0397 233.505 41.5329 237.29 33.6264 224.773C30.9704 220.573 30.7964 215.258 31.4822 210.337C34.7318 187.026 52.6277 163.085 73.9574 153.391C85.4103 148.132 104.053 140.168 98.0198 124.289Z" stroke="#002C77" stroke-width="4"/>
<ellipse cx="142.349" cy="108.216" rx="2.08043" ry="2.08041" fill="#002C77"/>
<path d="M141.715 101.737C141.715 101.737 134.98 104.774 137.112 110.677" stroke="#002C77" stroke-width="4"/>
<path d="M147.939 133.735C149.626 133.122 151.426 131.18 152.654 129.907C154.011 128.459 155.223 126.882 156.274 125.199C162.316 115.537 162.206 103.25 155.993 93.6969C153.886 90.4459 151.078 87.5631 147.56 85.9274C144.627 84.5464 141.346 84.0832 138.145 84.5984C139.934 86.0579 141.538 87.7297 142.922 89.577C145.006 92.3114 146.466 95.4696 147.197 98.8288C147.31 99.4166 147.407 99.9994 147.509 100.592C148.02 103.751 148.307 106.951 149.856 109.537C150.647 110.843 151.737 111.942 153.037 112.742C153.343 112.907 153.628 113.108 153.886 113.34C155.292 114.751 151.585 115.155 150.818 115.62C148.849 116.77 149.58 120.072 149.319 121.984C149.005 124.215 148.337 126.383 147.34 128.404C146.987 129.122 146.586 129.816 146.138 130.479C144.093 133.51 141.024 135.882 137.169 135.903C135.453 135.887 133.756 135.54 132.172 134.88C129.455 133.777 127.026 132.069 125.069 129.886" stroke="#002C77" stroke-width="4"/>
<path d="M144.236 123.16C144.236 123.16 139.598 125.802 137.588 119.72" stroke="#002C77" stroke-width="4"/>
<path d="M211.208 101.865L222.766 96.2832C223.822 95.774 224.745 95.0248 225.461 94.0955L230.856 87.0978C232.148 85.3317 231.802 82.8592 230.076 81.5147C228.349 80.1701 225.866 80.4401 224.469 82.1243L223.482 83.2744L225.563 78.352C225.849 77.6674 225.824 76.8923 225.493 76.228C225.162 75.5638 224.559 75.0761 223.84 74.8915L220.551 75.326L230.83 61.2949C232.288 59.3065 230.871 56.9041 228.739 56.2243C226.284 55.4422 224.014 57.0574 222.49 58.8465C216.22 66.2275 211.469 74.7637 207.056 83.3511C205.573 86.2374 204.142 89.1475 202.765 92.0815" stroke="#002C77" stroke-width="4" stroke-linejoin="round"/>
<path d="M220.557 75.3262C220.557 75.3262 213.852 83.663 223.487 83.2746" stroke="#002C77" stroke-width="4"/>
<path d="M201.891 252.604C201.891 252.604 196.92 260.664 202.709 262.642C208.498 264.621 211.663 255.318 211.663 255.318H200.489" stroke="#002C77" stroke-width="4"/>
<path d="M203.67 262.878H180.617" stroke="#002C77" stroke-width="4"/>
<path fill-rule="evenodd" clip-rule="evenodd" d="M226.944 208.118C226.937 208.686 226.83 209.249 226.627 209.779L224.315 215.796H214.461L217.882 206.503C218.663 204.376 220.859 203.116 223.09 203.514C225.322 203.911 226.946 205.852 226.944 208.118V208.118Z" stroke="#002C77" stroke-width="4"/>
<path d="M178.827 215.796L173.201 231.033L181.931 207.198C182.759 204.941 184.91 203.441 187.316 203.446H222.264" stroke="#002C77" stroke-width="4"/>
<path d="M208.866 231.033L214.461 215.796" stroke="#002C77" stroke-width="4"/>
<path d="M31.6424 217.953C16.2238 259.443 23.2913 300.678 23.2913 300.678C46.5802 313.63 79.6009 312.506 103.253 301.122C111.619 297.084 120.64 291.001 124.292 282.087C126.971 275.56 129.759 269.083 132.055 262.464" stroke="#002C77" stroke-width="4"/>
<path d="M18.3461 347.407H154.034" stroke="#002C77" stroke-width="4"/>
<path d="M138.11 231.048L136.647 235.991" stroke="#002C77" stroke-width="4"/>
<path d="M39.9576 322.468C39.9576 322.468 33.9846 311.816 32.0413 304.726" stroke="#002C77" stroke-width="4"/>
<path fill-rule="evenodd" clip-rule="evenodd" d="M69.4397 21.4353V127.438H29.5918C30.9044 123.243 32.0039 119 32.8903 114.71C35.6109 101.502 36.4189 87.8645 35.9945 74.089C35.2018 47.6574 45.9922 33.1049 60.3266 25.3609C63.2422 23.7856 66.2918 22.4719 69.4397 21.4353V21.4353Z" stroke="#CCDDE2" stroke-width="4"/>
<path fill-rule="evenodd" clip-rule="evenodd" d="M60.3265 25.3611V114.71H32.8749C35.5955 101.502 36.4035 87.8646 35.979 74.0891C35.2017 47.6575 45.9921 33.1152 60.3265 25.3611Z" stroke="#CCDDE2" stroke-width="4"/>
</svg>
