<svg width="180" height="50" viewBox="0 0 180 50" fill="none" xmlns="http://www.w3.org/2000/svg">
<path d="M79.211 20V4.61934H84.5985C86.4647 4.61934 87.8803 4.9785 88.8451 5.69683C89.8099 6.40811 90.2923 7.45391 90.2923 8.83423C90.2923 9.58777 90.0986 10.2533 89.7113 10.8308C89.324 11.4012 88.7852 11.8202 88.0951 12.0878C88.8838 12.285 89.5036 12.6829 89.9543 13.2815C90.412 13.8801 90.6409 14.6125 90.6409 15.4788C90.6409 16.9577 90.1691 18.0774 89.2254 18.838C88.2817 19.5986 86.9366 19.9859 85.1901 20H79.211ZM82.3801 13.3027V17.4542H85.095C85.8415 17.4542 86.4225 17.2781 86.838 16.926C87.2605 16.5668 87.4718 16.0738 87.4718 15.4471C87.4718 14.0386 86.7429 13.3238 85.2851 13.3027H82.3801ZM82.3801 11.0632H84.7253C86.3239 11.035 87.1232 10.3976 87.1232 9.15114C87.1232 8.45394 86.919 7.95393 86.5105 7.6511C86.1091 7.34124 85.4718 7.1863 84.5985 7.1863H82.3801V11.0632ZM102.282 13.3343H96.1974V17.4542H103.338V20H93.0283V4.61934H103.317V7.1863H96.1974V10.8519H102.282V13.3343ZM117.705 20H114.536L108.367 9.88003V20H105.198V4.61934H108.367L114.546 14.7604V4.61934H117.705V20ZM129.726 13.3343H123.642V17.4542H130.783V20H120.473V4.61934H130.762V7.1863H123.642V10.8519H129.726V13.3343ZM141.896 13.7146H135.811V20H132.642V4.61934H142.656V7.1863H135.811V11.1582H141.896V13.7146ZM147.864 20H144.695V4.61934H147.864V20ZM162.072 7.1863H157.361V20H154.192V7.1863H149.544V4.61934H162.072V7.1863ZM171.696 15.9647C171.696 15.3661 171.484 14.9083 171.062 14.5914C170.639 14.2675 169.879 13.9294 168.78 13.5773C167.682 13.2181 166.812 12.866 166.171 12.5209C164.424 11.5773 163.551 10.3061 163.551 8.70747C163.551 7.87646 163.784 7.13701 164.248 6.4891C164.72 5.83416 165.393 5.32358 166.266 4.95737C167.146 4.59117 168.132 4.40806 169.224 4.40806C170.322 4.40806 171.301 4.60877 172.161 5.01019C173.02 5.40457 173.685 5.96444 174.157 6.68981C174.636 7.41518 174.875 8.23915 174.875 9.1617H171.706C171.706 8.45746 171.484 7.91167 171.041 7.52434C170.597 7.12996 169.974 6.93278 169.171 6.93278C168.396 6.93278 167.794 7.09827 167.365 7.42927C166.935 7.75322 166.72 8.18281 166.72 8.71803C166.72 9.21804 166.97 9.63707 167.47 9.9751C167.977 10.3131 168.72 10.63 169.699 10.9258C171.502 11.4681 172.815 12.1407 173.639 12.9435C174.463 13.7463 174.875 14.7463 174.875 15.9436C174.875 17.2746 174.372 18.3204 173.365 19.081C172.358 19.8345 171.002 20.2113 169.298 20.2113C168.115 20.2113 167.037 19.9965 166.065 19.5669C165.093 19.1303 164.35 18.5352 163.836 17.7816C163.329 17.0281 163.076 16.1548 163.076 15.1619H166.255C166.255 16.8591 167.27 17.7077 169.298 17.7077C170.051 17.7077 170.639 17.5563 171.062 17.2535C171.484 16.9436 171.696 16.514 171.696 15.9647ZM90.9367 40.1196C90.7465 41.7464 90.1444 43.0035 89.1303 43.8908C88.1232 44.7711 86.7817 45.2113 85.1056 45.2113C83.2886 45.2113 81.8308 44.5598 80.7322 43.257C79.6406 41.9541 79.0948 40.2111 79.0948 38.028V36.5491C79.0948 35.1195 79.3484 33.8624 79.8554 32.7779C80.3695 31.6933 81.0949 30.8623 82.0315 30.2848C82.9682 29.7003 84.0527 29.4081 85.2851 29.4081C86.919 29.4081 88.2289 29.8658 89.2148 30.7813C90.2008 31.6898 90.7747 32.9504 90.9367 34.5631H88.8979C88.7218 33.3377 88.338 32.4504 87.7465 31.9011C87.1619 31.3518 86.3415 31.0771 85.2851 31.0771C83.9893 31.0771 82.9717 31.556 82.2322 32.5138C81.4998 33.4715 81.1336 34.8343 81.1336 36.6019V38.0914C81.1336 39.7604 81.4822 41.0879 82.1794 42.0739C82.8766 43.0598 83.852 43.5528 85.1056 43.5528C86.2323 43.5528 87.095 43.2993 87.6936 42.7922C88.2993 42.2781 88.7007 41.3872 88.8979 40.1196H90.9367ZM95.891 45H93.8628V29.6193H95.891V45ZM105.25 38.778H101.638V45H99.5989V29.6193H104.691C106.423 29.6193 107.754 30.0137 108.684 30.8025C109.62 31.5912 110.089 32.7391 110.089 34.2462C110.089 35.204 109.828 36.0385 109.307 36.7498C108.793 37.4611 108.074 37.9928 107.152 38.3449L110.765 44.8732V45H108.589L105.25 38.778ZM101.638 37.1195H104.754C105.761 37.1195 106.56 36.859 107.152 36.3378C107.75 35.8167 108.05 35.1195 108.05 34.2462C108.05 33.2955 107.765 32.5666 107.194 32.0595C106.631 31.5525 105.814 31.2954 104.743 31.2884H101.638V37.1195ZM124.254 40.1196C124.064 41.7464 123.462 43.0035 122.448 43.8908C121.441 44.7711 120.099 45.2113 118.423 45.2113C116.606 45.2113 115.149 44.5598 114.05 43.257C112.958 41.9541 112.413 40.2111 112.413 38.028V36.5491C112.413 35.1195 112.666 33.8624 113.173 32.7779C113.687 31.6933 114.413 30.8623 115.349 30.2848C116.286 29.7003 117.37 29.4081 118.603 29.4081C120.237 29.4081 121.547 29.8658 122.533 30.7813C123.518 31.6898 124.092 32.9504 124.254 34.5631H122.216C122.04 33.3377 121.656 32.4504 121.064 31.9011C120.48 31.3518 119.659 31.0771 118.603 31.0771C117.307 31.0771 116.289 31.556 115.55 32.5138C114.818 33.4715 114.451 34.8343 114.451 36.6019V38.0914C114.451 39.7604 114.8 41.0879 115.497 42.0739C116.194 43.0598 117.17 43.5528 118.423 43.5528C119.55 43.5528 120.413 43.2993 121.011 42.7922C121.617 42.2781 122.018 41.3872 122.216 40.1196H124.254ZM129.071 43.3415H136.36V45H127.033V29.6193H129.071V43.3415ZM147.368 37.8907H140.702V43.3415H148.445V45H138.674V29.6193H148.34V31.2884H140.702V36.2322H147.368V37.8907Z" fill="#002C77"/>
<path d="M59.6885 16.8486L46.7148 9.31678C45.8011 8.78633 44.306 8.78633 43.3923 9.31678L7.60105 30.0953L27.407 14.8031L17.9568 9.31678C17.0431 8.78633 15.548 8.78633 14.6343 9.31678L1.66062 16.8486C0.746921 17.3791 -0.0006496 18.6825 4.23583e-07 19.744V34.8013C-0.00064955 35.8651 0.746921 37.1685 1.66062 37.6989L14.6343 45.2308C15.548 45.7612 17.0431 45.7612 17.9568 45.2308L53.748 24.4523L33.942 39.7445L43.3923 45.2308C44.306 45.7612 45.8011 45.7612 46.7148 45.2308L59.6885 37.6989C60.6022 37.1685 61.3497 35.8651 61.3497 34.8024V19.7452C61.3497 18.6825 60.6022 17.3791 59.6885 16.8486Z" fill="#002C77"/>
</svg>
