<svg width="90" height="90" viewBox="0 0 90 90" fill="none" xmlns="http://www.w3.org/2000/svg">
  <path
    d="M35.6071 80.5943C35.396 80.5943 35.1876 80.5468 34.9974 80.4553C34.8071 80.3638 34.6399 80.2307 34.508 80.0658C34.3762 79.9009 34.2832 79.7085 34.2358 79.5027C34.1885 79.297 34.188 79.0832 34.2345 78.8773L38.2388 61.1902C38.2961 60.9368 38.4225 60.7043 38.604 60.5184C38.7854 60.3326 39.0148 60.2006 39.2667 60.1371L52.1075 56.901C52.4677 56.8142 52.8475 56.873 53.1645 57.0646C53.4815 57.2562 53.7101 57.5652 53.8006 57.9244C53.8911 58.2836 53.8363 58.664 53.648 58.983C53.4597 59.302 53.1531 59.5338 52.7948 59.628L40.7913 62.6532L36.9768 79.4983C36.9065 79.8092 36.7327 80.087 36.4838 80.2861C36.235 80.4852 35.9258 80.5939 35.6071 80.5943Z"
    fill="#FEDB41" />
  <path
    d="M77.9273 2.39941L81.6838 9.50274L68.7217 16.3582C64.4858 18.6018 61.1683 22.2564 59.3437 26.6889L55.7701 35.3936L48.3363 32.3402L51.9099 23.6373C54.4493 17.4657 59.0679 12.377 64.9652 9.25313L77.9273 2.39941Z"
    fill="#002C77" />
  <path
    d="M46.728 31.6793C45.6066 35.7764 42.9703 39.2944 39.3527 41.5209C35.7352 43.7474 31.4068 44.5161 27.2438 43.6714C23.0808 42.8266 19.3943 40.4316 16.9307 36.9712C14.4671 33.5107 13.4105 29.2434 13.9748 25.0333C14.539 20.8231 16.682 16.9846 19.9698 14.295C23.2576 11.6054 27.4447 10.2655 31.6832 10.5468C35.9216 10.828 39.8949 12.7093 42.7985 15.8098C45.7022 18.9103 47.3192 22.9983 47.3222 27.2461C47.3233 28.7438 47.1234 30.2348 46.728 31.6793Z"
    fill="#FEDB41" />
  <path
    d="M62.2706 36.9871C62.1268 36.643 61.8522 36.3701 61.5072 36.2284L47.2499 30.3735L47.2234 30.3628L46.1805 32.9749L46.2974 33.0229C45.531 35.1033 44.3591 37.0109 42.8498 38.635C41.3406 40.2592 39.5238 41.5675 37.5051 42.4841C35.4863 43.4007 33.3056 43.9074 31.0895 43.9748C28.8734 44.0422 26.666 43.6689 24.5952 42.8767L24.5882 42.896L23.8457 41.7016L23.4688 41.9361C21.0667 43.4246 19.1978 45.6356 18.13 48.2521L7.01517 75.3173C6.87351 75.6623 6.87472 76.0494 7.01851 76.3936C7.16231 76.7377 7.43692 77.0106 7.78193 77.1522L35.6587 88.5989C36.3176 88.8698 37.0235 89.0082 37.7359 89.0062C38.4484 89.0042 39.1534 88.8619 39.8108 88.5873C40.4682 88.3127 41.0651 87.9113 41.5673 87.406C42.0695 86.9007 42.4673 86.3014 42.7378 85.6423L55.9405 53.4903L62.2741 38.0638C62.3443 37.8929 62.3801 37.7098 62.3795 37.5251C62.3789 37.3404 62.3419 37.1575 62.2706 36.9871ZM40.1359 84.5744C40.0056 84.8917 39.8141 85.1803 39.5723 85.4235C39.3305 85.6668 39.0431 85.86 38.7265 85.9922C38.41 86.1243 38.0705 86.1928 37.7275 86.1937C37.3845 86.1946 37.0447 86.1279 36.7275 85.9974L18.2942 78.4284L31.913 53.7769C32.6727 52.4008 33.8493 51.3011 35.2735 50.6359C36.6977 49.9707 38.2961 49.7743 39.839 50.0749L53.2321 52.6817L40.1359 84.5744Z"
    fill="#002C77" />
  <path
    d="M30.586 25.7379C30.0068 25.7379 29.4406 25.5661 28.959 25.2443C28.4774 24.9226 28.102 24.4652 27.8804 23.9301C27.6587 23.395 27.6007 22.8061 27.7137 22.238C27.8267 21.67 28.1057 21.1482 28.5152 20.7386C28.9248 20.329 29.4466 20.0501 30.0147 19.9371C30.5827 19.8241 31.1716 19.8821 31.7067 20.1038C32.2418 20.3254 32.6992 20.7008 33.021 21.1824C33.3427 21.664 33.5145 22.2302 33.5145 22.8094C33.5145 23.1823 33.6627 23.54 33.9264 23.8037C34.1901 24.0675 34.5478 24.2156 34.9208 24.2156C35.2937 24.2156 35.6514 24.0675 35.9151 23.8037C36.1788 23.54 36.327 23.1823 36.327 22.8094C36.3251 21.5321 35.8981 20.2917 35.1132 19.284C34.3283 18.2763 33.2302 17.5586 31.9922 17.2441V15.9961C31.9922 15.6231 31.8441 15.2654 31.5804 15.0017C31.3166 14.738 30.9589 14.5898 30.586 14.5898C30.213 14.5898 29.8553 14.738 29.5916 15.0017C29.3279 15.2654 29.1797 15.6231 29.1797 15.9961V17.2441C27.8225 17.5871 26.6373 18.4141 25.8471 19.5696C25.0569 20.7251 24.7161 22.1296 24.8889 23.5188C25.0617 24.908 25.7361 26.1862 26.7853 27.113C27.8344 28.0398 29.1861 28.5513 30.586 28.5513C31.1649 28.5514 31.7309 28.7233 32.2122 29.045C32.6935 29.3668 33.0686 29.824 33.2901 30.359C33.5115 30.8939 33.5694 31.4825 33.4564 32.0503C33.3435 32.6181 33.0646 33.1397 32.6553 33.5491C32.2459 33.9584 31.7243 34.2373 31.1565 34.3502C30.5887 34.4632 30.0001 34.4053 29.4652 34.1839C28.9302 33.9624 28.473 33.5873 28.1512 33.106C27.8295 32.6246 27.6576 32.0587 27.6575 31.4798C27.6575 31.1068 27.5093 30.7491 27.2456 30.4854C26.9819 30.2217 26.6242 30.0735 26.2512 30.0735C25.8783 30.0735 25.5206 30.2217 25.2569 30.4854C24.9931 30.7491 24.845 31.1068 24.845 31.4798C24.8469 32.7256 25.2536 33.937 26.0037 34.9317C26.7538 35.9263 27.8067 36.6503 29.004 36.9947V38.4961C29.004 38.8691 29.1521 39.2267 29.4158 39.4905C29.6796 39.7542 30.0372 39.9023 30.4102 39.9023C30.7832 39.9023 31.1409 39.7542 31.4046 39.4905C31.6683 39.2267 31.8165 38.8691 31.8165 38.4961V37.084C33.199 36.781 34.4209 35.9779 35.2473 34.8288C36.0738 33.6797 36.4465 32.2658 36.2939 30.8587C36.1413 29.4515 35.4741 28.1504 34.4206 27.2052C33.367 26.26 32.0014 25.7375 30.586 25.7379Z"
    fill="#002C77" />
</svg>