<svg width="140" height="140" viewBox="0 0 140 140" fill="none" xmlns="http://www.w3.org/2000/svg">
  <path
    d="M89.3367 82.2052C89.3367 82.2052 88.6433 85.2383 86.0679 87.7643C83.4924 90.2902 85.6717 94.1534 85.6717 94.1534C85.6717 94.1534 86.2165 95.342 84.2354 96.8774C84.2354 96.8774 85.8006 97.5463 86.915 95.0203C86.915 95.0203 88.2833 97.2518 88.1989 99.0795C88.1983 99.094 88.2101 99.1056 88.2246 99.1044C88.525 99.0785 91.2381 98.7017 91.5655 93.5095C91.724 90.996 92.0378 89.259 92.3318 88.1138C92.8174 86.2221 92.7221 84.2169 91.9935 82.4049C91.6995 81.6737 91.3532 81.108 90.9712 81.0284C89.7825 80.7808 89.3367 82.2052 89.3367 82.2052Z"
    fill="#304551" />
  <path
    d="M76.9587 61.8367C76.9587 61.8367 79.8806 60.9697 80.6137 59.9433C81.3468 58.917 86.4784 54.7385 86.4784 54.7385L94.9088 48.8005C94.9088 48.8005 106.272 40.8832 108.178 40.6633C110.084 40.4434 115.802 37.4377 115.802 37.4377C115.802 37.4377 116.901 38.3174 115.288 39.0505C113.676 39.7836 113.163 40.9565 113.163 40.9565C113.163 40.9565 112.869 41.6896 114.775 42.2761C116.681 42.8625 119.98 44.402 119.98 44.402C119.98 44.402 120.347 45.6483 117.928 45.5016C115.508 45.355 114.482 45.6483 114.482 45.6483C114.482 45.6483 111.55 43.3757 109.424 43.7422L101.8 49.6372C101.8 49.6372 97.1814 54.152 94.249 55.0317C91.3167 55.9114 86.6983 60.8964 86.6983 60.8964L82.9596 64.7084H80.1739L76.9587 61.8367Z"
    fill="#FFBE9D" />
  <path
    d="M81.2737 63.7158C81.2737 63.7158 83.9912 64.1362 84.983 62.0484C85.9747 59.9605 87.2275 60.9 87.2275 60.9C87.2275 60.9 88.167 61.8918 88.8978 61.5786C88.8978 61.5786 89.6285 62.4435 90.3593 62.2198C90.3593 62.2198 90.8813 62.7269 91.7686 62.5703C92.656 62.4137 92.8126 63.1967 92.8126 63.1967C92.8126 63.1967 92.7082 65.4934 93.8043 66.3807C94.9004 67.2681 96.2576 68.4164 96.2054 71.1307C96.1532 73.8449 92.134 76.7157 92.134 76.7157L84.4088 75.4108L81.8693 73.0267L79.3457 66.6417L81.2737 63.7158Z"
    fill="#FFBE9D" />
  <path
    d="M81.9805 72.0314C81.9805 72.3779 81.9409 72.7243 81.8814 73.0409C81.8122 73.4269 81.7034 73.7932 81.5549 74.1295C81.5055 74.2383 81.446 74.347 81.3866 74.4562C81.3866 74.4562 81.3866 74.446 81.3866 74.4364C81.3372 74.159 80.8226 71.309 78.9819 70.9132C78.9324 70.8934 78.8729 70.8833 78.8136 70.8833C78.7246 70.8736 78.6354 70.864 78.5366 70.864C78.5267 70.864 78.5267 70.8538 78.5168 70.864C78.2595 70.864 77.9625 70.9132 77.6557 71.022C76.8839 71.2892 76.2505 71.6849 75.7161 72.1401C74.3702 73.2984 73.826 75.1192 74.1426 76.8607C74.2415 77.4251 74.2713 78.1571 74.1129 79.0477C74.1129 79.0777 74.1129 79.1173 74.0932 79.1468C74.0932 79.2362 74.0734 79.3251 74.0536 79.4241C74.0139 79.6319 73.9545 79.8397 73.8952 80.0673C73.8952 80.0673 73.5885 80.077 73.1629 80.1069C73.1629 80.1069 73.1629 80.1166 73.153 80.1069C72.4403 80.1465 71.4112 80.2451 70.9757 80.4234C70.2731 80.7003 64.5036 83.2734 64.5036 83.2734C64.5036 83.2734 57.9622 86.2621 53.8552 85.5001C51.4504 85.0551 48.7388 85.0749 46.6112 83.8576C45.0971 82.9869 43.8699 81.4822 43.2463 78.7414L44.0084 76.8312L44.8001 74.8519L49.5405 69.7753L52.5984 71.2989L59.8523 70.359L59.8622 70.3489C60.07 70.2401 63.4744 68.3599 64.0187 67.6177C64.5729 66.8455 70.6987 62.4618 76.963 61.8384C76.963 61.8384 79.5361 61.7689 81.2779 63.7186C81.2779 63.7186 81.2482 63.7679 81.1986 63.8472C81.0898 64.0453 80.9017 64.4014 80.8226 64.7083C80.7929 64.7972 80.7831 64.8866 80.7831 64.9653C80.7831 66.0738 82.0695 69.2901 81.9805 72.0314Z"
    fill="#002C77" />
  <path
    d="M67.1658 55.1284L59.8622 70.3488L59.8523 70.3589C59.8523 70.3589 58.3284 73.1891 58.2691 76.4943C58.2691 76.4943 57.5862 80.7993 53.6277 81.2743C49.6789 81.7498 46.4033 79.6415 46.4033 79.6415C46.4033 79.6415 44.4044 78.4837 45.6216 74.5252C45.6216 74.5252 44.7111 75.5646 44.0084 76.8311C43.6622 77.4448 43.3652 78.1175 43.2464 78.7413C43.2464 78.7413 42.1381 77.4743 46.8289 71.0417C46.8289 71.0417 50.6291 63.5007 55.6365 57.7016C55.6365 57.7016 56.1115 56.0094 55.9037 55.4851C55.9037 55.4851 55.0824 55.6035 53.9245 55.6532C52.4896 55.7223 50.54 55.6928 49.0457 55.2174C49.0457 55.2174 37.9718 51.6846 35.2799 53.8025C35.2799 53.8025 32.8553 56.3259 31.3214 55.4353C30.5595 54.9801 30.0548 54.2577 29.7479 53.644C28.976 52.1301 27.7291 50.8931 26.1358 50.2992C25.7003 50.1407 25.2352 50.0122 24.7305 49.9431C23.6123 49.7947 22.9986 49.0322 22.6523 48.1518C22.1279 46.8258 22.2465 45.252 22.2465 45.252C22.2465 45.252 22.7809 45.0442 23.3253 45.1926C23.5033 45.2322 23.6716 45.3211 23.83 45.4598C23.83 45.4598 23.83 43.0944 24.5722 43.3027C24.5722 43.3027 25.255 42.8277 24.8394 46.4692C24.8394 46.4692 25.73 47.152 29.4807 46.677L35.5966 47.6768C35.5966 47.6768 43.7215 48.3001 50.9655 47.9933H51.1041L51.0051 47.8155L50.9259 47.657L50.9062 47.6173L50.6291 47.1027C50.6291 47.1027 47.5711 40.8185 44.5032 39.4036C44.5032 39.4036 40.9209 39.7694 40.3369 38.2357C40.1192 37.6418 39.9015 36.6918 39.7333 35.7418C39.4364 34.1685 39.0108 32.6144 38.3973 31.13C37.9322 30.0022 37.5659 28.4878 38.1301 27.2213C38.1301 27.2213 38.7337 26.4293 39.565 25.6576C40.5052 24.767 41.7323 23.8958 42.6626 24.262C42.6626 24.262 42.6922 24.2722 42.7418 24.3017C43.0188 24.4403 43.7808 24.9448 42.3459 25.4793C40.6537 26.1128 41.3959 27.7948 41.3959 27.7948L45.1367 31.8031C45.1367 31.8031 48.7289 36.1279 48.9367 36.8107C49.1446 37.5031 56.3194 43.8864 56.3194 43.8864L60.8025 47.8348C60.8025 47.8348 66.2948 50.9622 67.2547 53.7431C67.4132 54.1983 67.3736 54.6931 67.1658 55.1284Z"
    fill="#FFBE9D" />
  <path
    d="M96.1595 70.1638C96.1595 70.1638 99.4417 74.4758 91.9838 79.2137C91.9838 79.2137 90.091 80.1296 87.7551 80.1876C83.4856 80.2935 80.385 76.0268 81.9672 72.0599C82.0073 71.9594 82.0499 71.8581 82.0952 71.7558C82.0952 71.7558 84.3934 71.7771 84.7443 71.0751C84.7443 71.0751 84.7132 74.7963 87.1261 73.3921C87.1261 73.3921 87.691 72.5935 86.682 70.51L88.2109 70.8562C88.2109 70.8562 93.8423 73.0466 96.1595 70.1638Z"
    fill="#304551" />
  <path
    d="M88.5958 80.1475C88.6713 80.957 88.7872 81.6736 89.3367 82.2051L91.7467 81.9053C91.7467 81.9053 92.7687 79.527 91.8528 78.428C91.2588 77.7152 90.064 78.2659 89.2974 78.7411C88.8155 79.0398 88.5432 79.583 88.5958 80.1475Z"
    fill="#002C77" />
  <path
    d="M73.9997 76.2984C73.7539 75.3586 73.826 74.3565 74.3026 73.51C75.0037 72.2646 76.2604 70.843 78.3407 70.8563C82.0366 70.8799 81.3486 74.8059 81.3486 74.8059C81.3486 74.8059 78.2385 87.35 75.1284 92.4299L71.6036 102.901C71.6036 102.901 68.5971 109.328 68.5971 109.847C68.5971 109.847 68.6615 112.612 67.5805 113.848C66.4994 115.083 66.0361 116.473 66.0361 116.473C66.0361 116.473 65.2639 116.319 65.4183 115.855C65.5728 115.392 62.2139 119.716 62.2139 119.716C62.2139 119.716 60.3991 119.639 61.4802 117.477C62.5612 115.315 64.7233 108.751 64.7233 108.751C64.7233 108.751 69.5881 95.7783 69.6654 94.9289C69.7426 94.0795 73.063 84.1183 73.063 84.1183C73.063 84.1183 74.6933 78.9506 73.9997 76.2984Z"
    fill="#FFBE9D" />
  <path
    d="M86.4832 53.5154C86.4832 53.931 86.4734 54.3466 86.4635 54.7621C86.3744 56.9395 86.0873 59.0671 85.6024 61.116V61.1256C85.5727 61.1551 85.5332 61.1947 85.5035 61.2343C85.4244 61.3237 85.355 61.4228 85.2759 61.5315C85.2265 61.6006 85.177 61.6799 85.1373 61.7591C85.0878 61.848 85.0285 61.9471 84.9791 62.0462C84.9196 62.1747 84.8503 62.2936 84.7811 62.4023C84.6326 62.6299 84.4546 62.8178 84.2665 62.9763C84.227 63.016 84.1774 63.0454 84.1378 63.0851C83.9795 63.2039 83.8113 63.303 83.6331 63.3818C83.5736 63.4117 83.5242 63.4315 83.4649 63.4513C83.3659 63.5006 83.2669 63.5306 83.168 63.5601C83.0393 63.5997 82.9206 63.6292 82.7919 63.6591C82.7128 63.6789 82.6435 63.6891 82.5742 63.6988V63.6891C83.346 61.4624 83.8805 59.1266 84.118 56.7018C84.227 55.6532 84.2863 54.594 84.2863 53.5154C84.2863 36.4048 70.3623 22.4707 53.2417 22.4707C49.5603 22.4707 46.0272 23.1144 42.7417 24.3016C41.6532 24.6877 40.5942 25.1429 39.5649 25.6575C31.7074 29.517 25.7201 36.6125 23.3253 45.1925C23.0481 46.1623 22.8304 47.1423 22.6523 48.1517C22.3455 49.8933 22.1872 51.6845 22.1872 53.5154C22.1872 68.3695 32.6673 80.8191 46.6112 83.8576C48.7487 84.3224 50.9655 84.5698 53.2417 84.5698C61.2379 84.5698 68.5413 81.5217 74.0536 76.534C74.0932 76.7321 74.1228 76.9398 74.1426 77.1476V77.2071C74.1624 77.4148 74.1722 77.6328 74.1722 77.8604C74.1722 77.8604 74.1722 77.87 74.1722 77.8802C74.1722 78.1174 74.1624 78.3649 74.1426 78.6224V78.662C74.1327 78.82 74.1129 78.9785 74.0932 79.1467C74.0932 79.2361 74.0833 79.3149 74.0734 79.4043C74.0635 79.4139 74.0635 79.4139 74.0536 79.4241C73.7665 79.6517 73.4696 79.8889 73.1629 80.1068C73.1629 80.1068 73.1629 80.1165 73.153 80.1068C67.6012 84.293 60.7035 86.767 53.2417 86.767C34.9038 86.767 20 71.8535 20 53.5154C20 35.1875 34.9038 20.2837 53.2417 20.2837C71.5696 20.2837 86.4832 35.1875 86.4832 53.5154Z"
    fill="#304551" />
  <path
    d="M55.9037 55.4852C55.9037 55.4852 55.0823 55.6036 53.9244 55.6534C53.3011 54.5352 51.401 50.9029 50.9655 47.9934H51.104C51.6484 48.9139 54.1026 53.1 55.9037 55.4852Z"
    fill="#F2C453" />
</svg>