<svg width="47" height="46" viewBox="0 0 47 46" fill="none" xmlns="http://www.w3.org/2000/svg">
<path d="M32.5883 28.3633C32.5883 28.3633 32.2624 29.7526 31.052 30.9096C29.8415 32.0666 30.8657 33.8362 30.8657 33.8362C30.8657 33.8362 31.1218 34.3806 30.1907 35.0839C30.1907 35.0839 30.9263 35.3903 31.4501 34.2333C31.4501 34.2333 32.0932 35.2554 32.0536 36.0926C32.0532 36.0992 32.0588 36.1045 32.0656 36.104C32.2068 36.0921 33.482 35.9195 33.6358 33.5413C33.7103 32.3899 33.8578 31.5943 33.996 31.0698C34.2242 30.2032 34.1795 29.2848 33.837 28.4548C33.6988 28.1199 33.5361 27.8607 33.3565 27.8243C32.7978 27.7108 32.5883 28.3633 32.5883 28.3633Z" fill="#304551"/>
<path d="M26.7705 19.0334C26.7705 19.0334 28.1438 18.6362 28.4883 18.1661C28.8329 17.696 31.2447 15.782 31.2447 15.782L35.207 13.0621C35.207 13.0621 40.5475 9.43563 41.4434 9.33489C42.3392 9.23416 45.0267 7.85742 45.0267 7.85742C45.0267 7.85742 45.5435 8.26037 44.7855 8.59616C44.0275 8.93195 43.7863 9.46921 43.7863 9.46921C43.7863 9.46921 43.6485 9.805 44.5443 10.0736C45.4401 10.3423 46.9906 11.0474 46.9906 11.0474C46.9906 11.0474 47.1629 11.6183 46.0259 11.5511C44.8888 11.4839 44.4065 11.6183 44.4065 11.6183C44.4065 11.6183 43.0283 10.5773 42.0291 10.7452L38.4458 13.4454C38.4458 13.4454 36.2751 15.5134 34.8969 15.9164C33.5188 16.3193 31.3481 18.6027 31.3481 18.6027L29.5909 20.3488H28.2816L26.7705 19.0334Z" fill="#FFBE9D"/>
<path d="M28.7985 19.8941C28.7985 19.8941 30.0757 20.0867 30.5419 19.1304C31.008 18.174 31.5968 18.6044 31.5968 18.6044C31.5968 18.6044 32.0383 19.0586 32.3818 18.9152C32.3818 18.9152 32.7253 19.3114 33.0687 19.2089C33.0687 19.2089 33.314 19.4412 33.7311 19.3695C34.1482 19.2977 34.2218 19.6564 34.2218 19.6564C34.2218 19.6564 34.1727 20.7084 34.6879 21.1148C35.2031 21.5213 35.8409 22.0473 35.8164 23.2905C35.7918 24.5338 33.9028 25.8488 33.9028 25.8488L30.272 25.2511L29.0784 24.159L27.8923 21.2344L28.7985 19.8941Z" fill="#FFBE9D"/>
<path d="M29.1308 23.7032C29.1308 23.8619 29.1122 24.0206 29.0843 24.1656C29.0517 24.3424 29.0006 24.5102 28.9308 24.6643C28.9076 24.7141 28.8797 24.7639 28.8517 24.8139C28.8517 24.8139 28.8517 24.8092 28.8517 24.8048C28.8285 24.6778 28.5866 23.3723 27.7215 23.191C27.6982 23.182 27.6703 23.1773 27.6424 23.1773C27.6006 23.1729 27.5587 23.1685 27.5122 23.1685C27.5076 23.1685 27.5076 23.1638 27.5029 23.1685C27.382 23.1685 27.2424 23.191 27.0982 23.2408C26.7354 23.3632 26.4377 23.5445 26.1866 23.753C25.554 24.2836 25.2982 25.1176 25.447 25.9153C25.4935 26.1738 25.5075 26.5091 25.4331 26.917C25.4331 26.9308 25.4331 26.9489 25.4238 26.9624C25.4238 27.0034 25.4145 27.0441 25.4052 27.0895C25.3866 27.1846 25.3586 27.2798 25.3307 27.3841C25.3307 27.3841 25.1866 27.3885 24.9866 27.4022C24.9866 27.4022 24.9866 27.4066 24.9819 27.4022C24.647 27.4204 24.1633 27.4655 23.9586 27.5472C23.6284 27.674 20.9167 28.8526 20.9167 28.8526C20.9167 28.8526 17.8422 30.2216 15.912 29.8726C14.7817 29.6687 13.5072 29.6778 12.5073 29.1202C11.7956 28.7214 11.2189 28.0321 10.9258 26.7767L11.2839 25.9018L11.6561 24.9952L13.884 22.6698L15.3212 23.3677L18.7306 22.9372L18.7352 22.9325C18.8329 22.8827 20.433 22.0215 20.6888 21.6815C20.9492 21.3278 23.8284 19.3198 26.7726 19.0343C26.7726 19.0343 27.982 19.0024 28.8006 19.8955C28.8006 19.8955 28.7866 19.9181 28.7634 19.9544C28.7122 20.0452 28.6238 20.2083 28.5866 20.3488C28.5727 20.3896 28.5681 20.4305 28.5681 20.4666C28.5681 20.9743 29.1727 22.4476 29.1308 23.7032Z" fill="#002C77"/>
<path d="M22.1678 15.9609L18.7351 22.9326L18.7305 22.9372C18.7305 22.9372 18.0142 24.2336 17.9863 25.7476C17.9863 25.7476 17.6654 27.7194 15.8049 27.937C13.949 28.1548 12.4094 27.1891 12.4094 27.1891C12.4094 27.1891 11.4699 26.6588 12.042 24.8456C12.042 24.8456 11.6141 25.3217 11.2838 25.9018C11.1211 26.1829 10.9815 26.491 10.9256 26.7768C10.9256 26.7768 10.4048 26.1964 12.6094 23.25C12.6094 23.25 14.3955 19.7958 16.749 17.1395C16.749 17.1395 16.9723 16.3644 16.8746 16.1242C16.8746 16.1242 16.4886 16.1785 15.9444 16.2013C15.2699 16.2329 14.3537 16.2194 13.6513 16.0016C13.6513 16.0016 8.4466 14.3834 7.18142 15.3535C7.18142 15.3535 6.04183 16.5094 5.32092 16.1014C4.96282 15.8929 4.7256 15.562 4.58139 15.2809C4.21858 14.5875 3.63251 14.0209 2.88367 13.7488C2.67898 13.6762 2.46039 13.6174 2.22317 13.5857C1.69763 13.5178 1.4092 13.1685 1.24642 12.7652C0.999947 12.1579 1.0557 11.437 1.0557 11.437C1.0557 11.437 1.30689 11.3418 1.56273 11.4097C1.64642 11.4279 1.72551 11.4686 1.79995 11.5321C1.79995 11.5321 1.79995 10.4487 2.14879 10.5441C2.14879 10.5441 2.4697 10.3265 2.27438 11.9945C2.27438 11.9945 2.69295 12.3073 4.45579 12.0897L7.33023 12.5476C7.33023 12.5476 11.1489 12.8332 14.5536 12.6926H14.6188L14.5723 12.6112L14.535 12.5386L14.5258 12.5204L14.3955 12.2847C14.3955 12.2847 12.9583 9.40618 11.5164 8.75811C11.5164 8.75811 9.83267 8.92566 9.5582 8.22313C9.45589 7.95111 9.35357 7.51596 9.27448 7.08081C9.13498 6.36013 8.93495 5.64831 8.64657 4.96836C8.42798 4.45176 8.25583 3.75809 8.52098 3.17796C8.52098 3.17796 8.8047 2.81519 9.19539 2.46171C9.63729 2.05378 10.214 1.65471 10.6513 1.82249C10.6513 1.82249 10.6652 1.82714 10.6885 1.84064C10.8187 1.90416 11.1768 2.13524 10.5024 2.38004C9.70707 2.67021 10.0559 3.44069 10.0559 3.44069L11.8141 5.27668C11.8141 5.27668 13.5025 7.25766 13.6001 7.57041C13.6978 7.88759 17.07 10.8115 17.07 10.8115L19.177 12.62C19.177 12.62 21.7584 14.0525 22.2096 15.3263C22.2841 15.5348 22.2654 15.7615 22.1678 15.9609Z" fill="#FFBE9D"/>
<path d="M35.7949 22.8477C35.7949 22.8477 37.3375 24.8227 33.8323 26.993C33.8323 26.993 32.9427 27.4125 31.8448 27.439C29.8381 27.4876 28.3809 25.5332 29.1245 23.7161C29.1434 23.6701 29.1634 23.6237 29.1847 23.5769C29.1847 23.5769 30.2648 23.5866 30.4298 23.2651C30.4298 23.2651 30.4151 24.9696 31.5492 24.3264C31.5492 24.3264 31.8147 23.9606 31.3405 23.0062L32.0591 23.1648C32.0591 23.1648 34.7058 24.1681 35.7949 22.8477Z" fill="#304551"/>
<path d="M32.2401 27.4207C32.2756 27.7914 32.33 28.1197 32.5883 28.3631L33.721 28.2258C33.721 28.2258 34.2013 27.1364 33.7709 26.633C33.4917 26.3065 32.9301 26.5588 32.5698 26.7764C32.3433 26.9133 32.2154 27.1621 32.2401 27.4207Z" fill="#002C77"/>
<path d="M25.3799 25.6573C25.2644 25.2269 25.2983 24.7678 25.5223 24.3801C25.8518 23.8097 26.4425 23.1585 27.4202 23.1646C29.1573 23.1754 28.834 24.9737 28.834 24.9737C28.834 24.9737 27.3722 30.7196 25.9104 33.0464L24.2538 37.8426C24.2538 37.8426 22.8407 40.7867 22.8407 41.0242C22.8407 41.0242 22.871 42.2909 22.3629 42.8568C21.8548 43.4227 21.637 44.0594 21.637 44.0594C21.637 44.0594 21.2741 43.9886 21.3467 43.7764C21.4193 43.5642 19.8406 45.5449 19.8406 45.5449C19.8406 45.5449 18.9877 45.5096 19.4958 44.5192C20.0039 43.5288 21.0201 40.5224 21.0201 40.5224C21.0201 40.5224 23.3065 34.5802 23.3428 34.1911C23.3791 33.802 24.9397 29.2393 24.9397 29.2393C24.9397 29.2393 25.706 26.8722 25.3799 25.6573Z" fill="#FFBE9D"/>
<path d="M31.2471 15.2218C31.2471 15.4122 31.2425 15.6025 31.2379 15.7929C31.196 16.7902 31.0611 17.7648 30.8332 18.7033V18.7077C30.8192 18.7212 30.8006 18.7393 30.7866 18.7575C30.7495 18.7984 30.7169 18.8438 30.6797 18.8936C30.6565 18.9253 30.6332 18.9616 30.6146 18.9979C30.5913 19.0386 30.5634 19.084 30.5402 19.1293C30.5122 19.1882 30.4797 19.2427 30.4471 19.2925C30.3773 19.3967 30.2936 19.4828 30.2052 19.5554C30.1867 19.5736 30.1634 19.5871 30.1448 19.6052C30.0704 19.6597 29.9913 19.705 29.9076 19.7411C29.8796 19.7548 29.8564 19.7639 29.8285 19.773C29.782 19.7956 29.7355 19.8093 29.689 19.8228C29.6285 19.8409 29.5727 19.8544 29.5122 19.8682C29.475 19.8772 29.4424 19.8819 29.4099 19.8863V19.8819C29.7727 18.862 30.0238 17.792 30.1355 16.6813C30.1867 16.201 30.2146 15.7159 30.2146 15.2218C30.2146 7.38427 23.6703 1.00177 15.6236 1.00177C13.8933 1.00177 12.2328 1.2966 10.6886 1.84042C10.177 2.01727 9.67928 2.22577 9.19553 2.4615C5.50246 4.22932 2.68844 7.47945 1.56287 11.4095C1.43262 11.8537 1.33031 12.3026 1.24656 12.765C1.1024 13.5627 1.02796 14.3832 1.02796 15.2218C1.02796 22.0258 5.95362 27.7283 12.5073 29.1201C13.5119 29.333 14.5538 29.4463 15.6236 29.4463C19.3818 29.4463 22.8144 28.0501 25.4052 25.7655C25.4238 25.8562 25.4377 25.9514 25.447 26.0466V26.0738C25.4563 26.169 25.4609 26.2688 25.4609 26.3731C25.4609 26.3731 25.4609 26.3775 25.4609 26.3821C25.4609 26.4908 25.4563 26.6041 25.447 26.7221V26.7403C25.4424 26.8126 25.4331 26.8852 25.4238 26.9623C25.4238 27.0032 25.4191 27.0393 25.4145 27.0802C25.4098 27.0847 25.4098 27.0847 25.4052 27.0893C25.2703 27.1936 25.1307 27.3022 24.9866 27.4021C24.9866 27.4021 24.9866 27.4065 24.9819 27.4021C22.3726 29.3195 19.1306 30.4528 15.6236 30.4528C7.00481 30.4528 0 23.6216 0 15.2218C0 6.82672 7.00481 0 15.6236 0C24.2377 0 31.2471 6.82672 31.2471 15.2218Z" fill="#304551"/>
<path d="M16.8747 16.124C16.8747 16.124 16.4886 16.1782 15.9444 16.201C15.6515 15.6889 14.7584 14.0251 14.5537 12.6924H14.6188C14.8747 13.114 16.0282 15.0315 16.8747 16.124Z" fill="#F2C453"/>
</svg>
