<svg width="41" height="58" viewBox="0 0 41 58" fill="none" xmlns="http://www.w3.org/2000/svg">
  <g clip-path="url(#clip0)">
    <path
      d="M40.6046 54.7534C40.6046 56.2541 39.39 57.4737 37.8892 57.4737L2.77557 57.5139C1.58102 57.5139 0.567159 56.7459 0.200764 55.6769C0.105401 55.4008 0.0552102 55.1097 0.0552102 54.8036L0 4.16578C0 2.66507 1.21462 1.44543 2.71534 1.44543L34.9581 1.41029L37.829 1.40527C39.3297 1.40527 40.5494 2.6199 40.5494 4.12061L40.6046 54.7534Z"
      fill="#002C77" />
    <path
      d="M36.9658 54.4623L3.6941 54.4974C2.88602 54.4974 2.23354 53.8449 2.23354 53.0368L2.18335 5.91244C2.18335 5.10437 2.83583 4.45188 3.64391 4.45188L36.9106 4.41675C37.7186 4.41675 38.3711 5.06923 38.3711 5.87731L38.4213 53.0017C38.4263 53.8048 37.7738 54.4623 36.9658 54.4623Z"
      fill="white" />
    <path
      d="M32.293 8.3017L8.02564 8.33181C7.22258 8.33181 6.56508 7.67933 6.56508 6.87627L6.56006 2.83087C6.56006 2.02781 7.21254 1.37031 8.0156 1.37031L32.288 1.34521C33.0911 1.34521 33.7486 1.9977 33.7486 2.80076L33.7536 6.84616C33.7486 7.64921 33.0961 8.3017 32.293 8.3017ZM8.0156 2.11314C7.62411 2.11314 7.30289 2.43436 7.30289 2.82585L7.30791 6.87125C7.30791 7.26274 7.62913 7.58396 8.02062 7.58396L32.293 7.55887C32.6845 7.55887 33.0057 7.23765 33.0057 6.84616L33.0007 2.80076C33.0007 2.40927 32.6795 2.08804 32.288 2.08804L8.0156 2.11314Z"
      fill="url(#paint0_linear)" />
    <path
      d="M31.6054 3.09679L8.94415 3.12188C8.6932 3.12188 8.49243 2.92112 8.49243 2.67017V0.476815C8.49243 0.22586 8.6932 0.0250955 8.94415 0.0250955L31.6004 0C31.8514 0 32.0521 0.200764 32.0521 0.45172V2.64507C32.0572 2.89602 31.8564 3.09679 31.6054 3.09679Z"
      fill="url(#paint1_linear)" />
    <path
      d="M8.96436 3.122L31.5855 3.09691C31.8465 3.09691 32.0573 2.88611 32.0573 2.62511V1.55103L8.48755 1.57612V2.65021C8.48755 2.9112 8.70337 3.122 8.96436 3.122Z"
      fill="#002C77" />
    <path
      d="M16.9143 49.162L14.9569 37.3169L13.3708 42.4716L8.83356 42.4766C8.55751 42.4766 8.33667 42.2558 8.33667 41.9797C8.33667 41.7037 8.55751 41.4828 8.83356 41.4828L12.6431 41.4778L15.258 32.9905L17.2155 44.8657L19.7551 36.7096L21.1053 40.5744L24.1469 33.2013L27.1031 44.8958L28.2174 41.1766L31.4798 41.1716C31.7558 41.1716 31.9767 41.3925 31.9767 41.6685C31.9767 41.9446 31.7558 42.1654 31.4798 42.1654L28.9552 42.1704L27.0228 48.62L23.921 36.3533L21.025 43.365L19.8053 39.8767L16.9143 49.162Z"
      fill="#002C77" />
    <path
      d="M13.5515 26.3252L7.1722 26.3302C6.14329 26.3302 5.30008 25.492 5.30008 24.4631L5.29004 15.5441C5.29004 14.5152 6.12823 13.672 7.15715 13.672L13.5364 13.667C14.5654 13.667 15.4086 14.5052 15.4086 15.5341L15.4186 24.4531C15.4186 25.482 14.5804 26.3202 13.5515 26.3252ZM7.15213 14.2141C6.41934 14.2141 5.82708 14.8113 5.82708 15.5441L5.83712 24.4631C5.83712 25.1959 6.4344 25.7881 7.16719 25.7881L13.5465 25.7831C14.2793 25.7831 14.8715 25.1858 14.8715 24.4531L14.8615 15.5341C14.8615 14.8013 14.2642 14.2091 13.5314 14.2091L7.15213 14.2141Z"
      fill="#002C77" />
    <path
      d="M10.3544 24.6135C13.3708 24.6085 14.3094 22.8669 14.3094 22.8669C14.1739 22.6962 14.0032 22.5457 13.7724 22.3951C12.9794 21.8781 12.3419 21.6573 12.0759 21.4364C11.8049 21.2206 11.6543 20.9044 11.6543 20.9044L11.4887 21.0048C11.4887 21.0048 11.3883 20.6585 11.4435 20.1315C11.4435 20.1315 11.6794 20.0712 11.8551 19.2732C12.1361 19.3284 12.4674 18.6157 12.3118 18.3547C12.2114 18.1841 12.091 18.1991 12.0056 18.2393C12.091 17.8829 12.4774 15.9104 10.3493 15.9104C8.22123 15.9104 8.60771 17.8829 8.69805 18.2393C8.61273 18.1991 8.49227 18.1841 8.39188 18.3547C8.23629 18.6157 8.57257 19.3284 8.85364 19.2732C9.02931 20.0712 9.27023 20.1264 9.27023 20.1264C9.33046 20.6484 9.22506 20.9998 9.22506 20.9998L9.05943 20.8994C9.05943 20.8994 8.90885 21.2106 8.63782 21.4314C8.36679 21.6523 7.73438 21.8781 6.94136 22.3951C6.71048 22.5457 6.53481 22.6962 6.40432 22.8669C6.3993 22.8769 7.34289 24.6185 10.3544 24.6135Z"
      fill="#002C77" />
    <path
      d="M30.2201 16.5128L17.9383 16.5279C17.7074 16.5279 17.5217 16.3422 17.5217 16.1113V16.041C17.5217 15.8101 17.7074 15.6244 17.9383 15.6244L30.2201 15.6094C30.4509 15.6094 30.6367 15.7951 30.6367 16.026V16.0962C30.6367 16.3271 30.4459 16.5128 30.2201 16.5128Z"
      fill="#002C77" />
    <path
      d="M25.7029 18.8517L17.9383 18.8617C17.7074 18.8617 17.5217 18.676 17.5217 18.4451V18.3749C17.5217 18.144 17.7074 17.9583 17.9383 17.9583L25.7029 17.9482C25.9338 17.9482 26.1195 18.134 26.1195 18.3648V18.4351C26.1195 18.666 25.9338 18.8517 25.7029 18.8517Z"
      fill="#002C77" />
    <path opacity="0.6"
      d="M34.4561 21.6322L17.9432 21.6523C17.7123 21.6523 17.5266 21.4666 17.5266 21.2357V21.1654C17.5266 20.9345 17.7123 20.7488 17.9432 20.7488L34.4561 20.7288C34.6869 20.7288 34.8726 20.9145 34.8726 21.1453V21.2156C34.8676 21.4465 34.6819 21.6322 34.4561 21.6322Z"
      fill="#002C77" />
    <path opacity="0.6"
      d="M34.1 29.4469L6.55518 29.477C6.31928 29.477 6.12354 29.2863 6.12354 29.0454V29.0052C6.12354 28.7693 6.31426 28.5736 6.55518 28.5736L34.1 28.5435C34.3359 28.5435 34.5317 28.7342 34.5317 28.9751V29.0153C34.5317 29.2562 34.3359 29.4469 34.1 29.4469Z"
      fill="#002C77" />
    <path opacity="0.6"
      d="M34.4561 24.3627L17.9432 24.3827C17.7123 24.3827 17.5266 24.197 17.5266 23.9662V23.8959C17.5266 23.665 17.7123 23.4793 17.9432 23.4793L34.4561 23.4592C34.6869 23.4592 34.8726 23.6449 34.8726 23.8758V23.9461C34.8726 24.177 34.6869 24.3627 34.4561 24.3627Z"
      fill="#002C77" />
  </g>
  <defs>
    <linearGradient id="paint0_linear" x1="-3.1629" y1="-12.9394" x2="33.7496" y2="4.83672"
      gradientUnits="userSpaceOnUse">
      <stop stop-color="#002C77" />
      <stop offset="1" stop-color="#002C77" />
    </linearGradient>
    <linearGradient id="paint1_linear" x1="8.48669" y1="1.56153" x2="32.0567" y2="1.56153"
      gradientUnits="userSpaceOnUse">
      <stop stop-color="#002C77" />
      <stop offset="1" stop-color="#002C77" />
    </linearGradient>
    <clipPath id="clip0">
      <rect width="40.6046" height="57.5089" fill="white" />
    </clipPath>
  </defs>
</svg>