<svg width="261" height="46" viewBox="0 0 261 46" fill="none" xmlns="http://www.w3.org/2000/svg">
<g clip-path="url(#clip0)">
<path d="M95.6746 42.8711V2.54245H103.467L117.263 24.1926L131.217 2.54245H138.799V42.8711H131.532V13.6857L117.21 36.026L102.941 13.739V42.8711H95.6746Z" fill="#002C77"/>
<path d="M155.568 43.8262C152.408 43.8262 149.872 42.9509 147.959 41.1998C146.045 39.4487 145.089 37.1231 145.089 34.2217C145.089 32.1351 145.598 30.3217 146.616 28.7827C147.634 27.2436 149.073 26.0419 150.934 25.1744C152.794 24.3078 154.971 23.8744 157.464 23.8744C160.377 23.8744 163.045 24.3875 165.467 25.4131V25.3071C165.467 22.7251 164.791 20.7619 163.44 19.4169C162.088 18.0729 160.008 17.4004 157.2 17.4004C155.55 17.4004 153.857 17.6658 152.119 18.1963C150.381 18.7271 148.757 19.5056 147.248 20.5312V14.2166C148.687 13.4034 150.32 12.7135 152.145 12.1471C153.97 11.5816 155.901 11.2982 157.937 11.2982C162.43 11.2982 165.888 12.4655 168.31 14.8004C170.732 17.135 171.943 20.4782 171.943 24.8293V42.8713H165.783L165.677 38.4141C164.835 40.0771 163.501 41.3945 161.676 42.3674C159.85 43.3397 157.814 43.8262 155.568 43.8262ZM151.724 33.7976C151.724 35.3186 152.215 36.4952 153.198 37.3262C154.181 38.1577 155.55 38.5729 157.305 38.5729C159.797 38.5729 161.728 37.857 163.098 36.424C164.467 34.9909 165.238 32.9133 165.414 30.1887C163.413 29.2691 161.131 28.809 158.569 28.809C156.322 28.809 154.62 29.2428 153.462 30.109C152.303 30.9765 151.724 32.2052 151.724 33.7976Z" fill="#002C77"/>
<path d="M179.475 42.8712V12.2531H186.267L186.32 18.621C187.127 16.5341 188.355 14.8717 190.006 13.6328C191.655 12.3951 193.516 11.7756 195.587 11.7756C196.148 11.7756 196.815 11.8286 197.588 11.9347C198.36 12.041 198.975 12.1827 199.431 12.3594V19.2045C198.869 19.0281 198.132 18.8687 197.219 18.727C196.306 18.586 195.464 18.5147 194.692 18.5147C192.059 18.5147 190.049 19.3729 188.663 21.0883C187.276 22.8047 186.583 25.2897 186.583 28.5436V42.8712H179.475Z" fill="#002C77"/>
<path d="M213.732 43.8262C212.643 43.8262 211.459 43.6938 210.178 43.4284C208.896 43.163 207.667 42.8006 206.492 42.3405C205.315 41.8816 204.288 41.3682 203.412 40.802V34.5404C206.536 36.769 209.87 37.8833 213.416 37.8833C215.487 37.8833 216.997 37.6269 217.944 37.1141C218.892 36.6013 219.366 35.7961 219.366 34.6992C219.366 33.7443 218.936 32.9667 218.076 32.3646C217.215 31.7637 215.557 31.0736 213.1 30.2948C209.659 29.199 207.229 27.9254 205.807 26.4744C204.386 25.0243 203.675 23.0608 203.675 20.5842C203.675 17.7188 204.71 15.4552 206.781 13.7922C208.852 12.1297 211.678 11.2982 215.259 11.2982C216.628 11.2982 218.189 11.5369 219.945 12.0144C221.7 12.4922 223.227 13.1023 224.526 13.8452V20.1068C223.402 19.2576 221.972 18.5596 220.235 18.0106C218.497 17.4627 216.891 17.1881 215.417 17.1881C212.117 17.1881 210.467 18.1963 210.467 20.2128C210.467 20.8149 210.616 21.319 210.915 21.7252C211.213 22.1323 211.766 22.5304 212.573 22.9192C213.38 23.3089 214.539 23.7507 216.049 24.2458C218.646 25.0947 220.691 25.9886 222.183 26.9255C223.675 27.8631 224.746 28.9336 225.395 30.136C226.045 31.3389 226.37 32.8073 226.37 34.5404C226.37 37.3711 225.219 39.626 222.92 41.3059C220.621 42.9857 217.558 43.8262 213.732 43.8262Z" fill="#002C77"/>
<path d="M232.531 42.8711V2.54242H239.639V16.6574C240.516 14.9593 241.78 13.6419 243.431 12.704C245.08 11.7671 246.976 11.298 249.117 11.298C252.627 11.298 255.33 12.4213 257.226 14.6675C259.122 16.9144 260.069 20.1422 260.069 24.3517V42.8711H252.961V25.6783C252.961 20.3369 250.925 17.6656 246.853 17.6656C244.606 17.6656 242.842 18.4175 241.561 19.9209C240.279 21.4249 239.639 23.5384 239.639 26.2621V42.8711H232.531Z" fill="#002C77"/>
<path d="M73.6158 9.77993L57.6149 0.490659C56.488 -0.163553 54.644 -0.163553 53.5171 0.490659L9.37463 26.1175L33.802 7.25711L22.1467 0.49066C21.0198 -0.163553 19.1758 -0.163553 18.0489 0.49066L2.04809 9.77993C0.921202 10.4341 -0.000801173 12.0417 5.22419e-07 13.3509V31.9215C-0.000801112 33.2335 0.921202 34.8411 2.04809 35.4953L18.0489 44.7846C19.1758 45.4388 21.0198 45.4388 22.1467 44.7846L66.2892 19.1578L41.8618 38.0181L53.5171 44.7846C54.644 45.4388 56.488 45.4388 57.6149 44.7846L73.6158 35.4953C74.7427 34.8411 75.6647 33.2335 75.6647 31.9229V13.3523C75.6647 12.0417 74.7427 10.4341 73.6158 9.77993Z" fill="#002C77"/>
</g>
<defs>
<clipPath id="clip0">
<rect width="260.069" height="45.2753" fill="white"/>
</clipPath>
</defs>
</svg>
