<svg width="107" height="107" viewBox="0 0 107 107" fill="none" xmlns="http://www.w3.org/2000/svg">
  <path
    d="M81.8696 26.6455V82.1309C81.8696 84.9299 80.7577 87.6143 78.7785 89.5935C76.7993 91.5727 74.1149 92.6846 71.3159 92.6846C68.5169 92.6846 65.8325 91.5727 63.8533 89.5935C61.8741 87.6143 60.7622 84.9299 60.7622 82.1309V26.6455H81.8696Z"
    fill="#D9F0FF" />
  <path
    d="M81.8696 47.335V82.1309C81.8696 84.9299 80.7577 87.6143 78.7785 89.5935C76.7993 91.5727 74.1149 92.6846 71.3159 92.6846C68.5169 92.6846 65.8325 91.5727 63.8533 89.5935C61.8741 87.6143 60.7622 84.9299 60.7622 82.1309V47.335H81.8696Z"
    fill="#FF7A7A" />
  <path
    d="M81.8696 47.335V26.6455H60.7622V29.7364C60.9348 29.7659 61.1096 29.7805 61.2847 29.7803H72.8758C73.5983 29.7803 74.2912 30.0673 74.8022 30.5782C75.3131 31.0891 75.6001 31.7821 75.6001 32.5046V47.335H81.8696Z"
    fill="#B3E0FF" />
  <path
    d="M25.1304 26.6455H46.2378V82.1309C46.2378 83.5168 45.9648 84.8892 45.4344 86.1696C44.9041 87.45 44.1267 88.6135 43.1467 89.5935C42.1667 90.5735 41.0033 91.3508 39.7228 91.8812C38.4424 92.4116 37.07 92.6846 35.6841 92.6846H35.6841C34.2981 92.6846 32.9258 92.4116 31.6453 91.8812C30.3649 91.3508 29.2015 90.5735 28.2215 89.5935C27.2415 88.6135 26.4641 87.45 25.9337 86.1696C25.4034 84.8892 25.1304 83.5168 25.1304 82.1309V26.6455Z"
    fill="#D9F0FF" />
  <path
    d="M46.2378 47.0508V82.1309C46.2378 84.9299 45.1259 87.6143 43.1467 89.5935C41.1675 91.5727 38.4831 92.6846 35.6841 92.6846C32.8851 92.6846 30.2007 91.5727 28.2215 89.5935C26.2423 87.6143 25.1304 84.9299 25.1304 82.1309V47.0508H46.2378Z"
    fill="#FF7A7A" />
  <path
    d="M81.3472 20.376H61.2847C59.5534 20.376 58.1499 21.7795 58.1499 23.5107C58.1499 25.242 59.5534 26.6455 61.2847 26.6455H81.3472C83.0785 26.6455 84.4819 25.242 84.4819 23.5107C84.4819 21.7795 83.0785 20.376 81.3472 20.376Z"
    fill="#676E87" />
  <path
    d="M75.6001 47.335V48.9023H60.7622V52.0371H71.0046C71.6081 52.0371 72.2057 52.156 72.7632 52.3869C73.3208 52.6179 73.8274 52.9564 74.2541 53.3831C74.6808 53.8098 75.0193 54.3164 75.2503 54.874C75.4812 55.4315 75.6001 56.0291 75.6001 56.6326V82.1309C75.6 84.3826 74.88 86.5753 73.5453 88.3888C72.2106 90.2023 70.331 91.5416 68.1812 92.2111C69.1963 92.5259 70.2531 92.6855 71.3159 92.6846H71.3159C74.1149 92.6846 76.7993 91.5727 78.7785 89.5935C80.7577 87.6143 81.8696 84.9299 81.8696 82.1309V47.335H75.6001Z"
    fill="#FF6666" />
  <path
    d="M81.3472 20.376H61.2847C59.5534 20.376 58.1499 21.7795 58.1499 23.5107C58.1499 25.242 59.5534 26.6455 61.2847 26.6455H81.3472C83.0785 26.6455 84.4819 25.242 84.4819 23.5107C84.4819 21.7795 83.0785 20.376 81.3472 20.376Z"
    fill="#002C77" />
  <path
    d="M81.3472 20.376C81.3472 21.2074 81.0169 22.0047 80.429 22.5926C79.8411 23.1805 79.0438 23.5107 78.2124 23.5107H58.1499C58.1499 24.3421 58.4802 25.1395 59.0681 25.7274C59.6559 26.3152 60.4533 26.6455 61.2847 26.6455H81.3472C82.1786 26.6455 82.9759 26.3152 83.5638 25.7274C84.1517 25.1395 84.4819 24.3421 84.4819 23.5107C84.4819 22.6794 84.1517 21.882 83.5638 21.2941C82.9759 20.7062 82.1786 20.376 81.3472 20.376Z"
    fill="#002C77" />
  <path
    d="M39.9683 47.335V48.9023H25.1304V52.0371H35.8445C36.9382 52.0371 37.9871 52.4716 38.7604 53.2449C39.5338 54.0183 39.9683 55.0672 39.9683 56.1609V82.1309C39.9681 84.3826 39.2482 86.5753 37.9134 88.3888C36.5787 90.2023 34.6992 91.5416 32.5493 92.2111C33.5644 92.5259 34.6213 92.6855 35.6841 92.6846H35.6841C37.07 92.6846 38.4424 92.4116 39.7228 91.8812C41.0033 91.3508 42.1667 90.5735 43.1467 89.5935C44.1267 88.6135 44.9041 87.45 45.4344 86.1696C45.9648 84.8892 46.2378 83.5168 46.2378 82.1309V47.335H39.9683Z"
    fill="#FF6666" />
  <path
    d="M46.2378 47.335V26.6455H25.1304V29.7364C25.303 29.7659 25.4777 29.7805 25.6528 29.7803H37.2439C37.9665 29.7803 38.6594 30.0673 39.1703 30.5782C39.6812 31.0891 39.9683 31.7821 39.9683 32.5046V47.335H46.2378Z"
    fill="#B3E0FF" />
  <path
    d="M25.6528 20.376H45.7153C46.5467 20.376 47.3441 20.7062 47.9319 21.2941C48.5198 21.882 48.8501 22.6794 48.8501 23.5107C48.8501 24.3421 48.5198 25.1395 47.9319 25.7274C47.3441 26.3152 46.5467 26.6455 45.7153 26.6455H25.6528C24.8214 26.6455 24.0241 26.3152 23.4362 25.7274C22.8483 25.1395 22.5181 24.3421 22.5181 23.5107C22.5181 22.6794 22.8483 21.882 23.4362 21.2941C24.0241 20.7062 24.8214 20.376 25.6528 20.376Z"
    fill="#002C77" />
  <path
    d="M105.433 48.9023H1.56738C1.15169 48.9023 0.753017 48.7372 0.459076 48.4433C0.165134 48.1493 0 47.7507 0 47.335C0 46.9193 0.165134 46.5206 0.459076 46.2267C0.753017 45.9327 1.15169 45.7676 1.56738 45.7676H105.433C105.848 45.7676 106.247 45.9327 106.541 46.2267C106.835 46.5206 107 46.9193 107 47.335C107 47.7507 106.835 48.1493 106.541 48.4433C106.247 48.7372 105.848 48.9023 105.433 48.9023Z"
    fill="#002C77" />
  <path
    d="M67.1885 60.3965C68.0541 60.3965 68.7559 59.6947 68.7559 58.8291C68.7559 57.9635 68.0541 57.2617 67.1885 57.2617C66.3228 57.2617 65.6211 57.9635 65.6211 58.8291C65.6211 59.6947 66.3228 60.3965 67.1885 60.3965Z"
    fill="#FF6666" />
  <path
    d="M69.5918 70.115C70.4574 70.115 71.1592 69.4132 71.1592 68.5476C71.1592 67.682 70.4574 66.9802 69.5918 66.9802C68.7262 66.9802 68.0244 67.682 68.0244 68.5476C68.0244 69.4132 68.7262 70.115 69.5918 70.115Z"
    fill="#FF6666" />
  <path
    d="M75.0254 77.7168C75.891 77.7168 76.5928 77.0151 76.5928 76.1494C76.5928 75.2838 75.891 74.582 75.0254 74.582C74.1597 74.582 73.458 75.2838 73.458 76.1494C73.458 77.0151 74.1597 77.7168 75.0254 77.7168Z"
    fill="#FF6666" />
  <path
    d="M38.6621 77.7168C39.5278 77.7168 40.2295 77.0151 40.2295 76.1494C40.2295 75.2838 39.5278 74.582 38.6621 74.582C37.7965 74.582 37.0947 75.2838 37.0947 76.1494C37.0947 77.0151 37.7965 77.7168 38.6621 77.7168Z"
    fill="#FF6666" />
  <path
    d="M32.3926 71.4473C33.2582 71.4473 33.96 70.7455 33.96 69.8799C33.96 69.0142 33.2582 68.3125 32.3926 68.3125C31.5269 68.3125 30.8252 69.0142 30.8252 69.8799C30.8252 70.7455 31.5269 71.4473 32.3926 71.4473Z"
    fill="#FF6666" />
  <path
    d="M31.1387 62.043C32.0043 62.043 32.7061 61.3412 32.7061 60.4756C32.7061 59.6099 32.0043 58.9082 31.1387 58.9082C30.273 58.9082 29.5713 59.6099 29.5713 60.4756C29.5713 61.3412 30.273 62.043 31.1387 62.043Z"
    fill="#FF6666" />
  <path
    d="M31.1387 83.9863C32.0043 83.9863 32.7061 83.2846 32.7061 82.4189C32.7061 81.5533 32.0043 80.8516 31.1387 80.8516C30.273 80.8516 29.5713 81.5533 29.5713 82.4189C29.5713 83.2846 30.273 83.9863 31.1387 83.9863Z"
    fill="#FF6666" />
  <path
    d="M40.543 55.7734C41.4086 55.7734 42.1104 55.0717 42.1104 54.2061C42.1104 53.3404 41.4086 52.6387 40.543 52.6387C39.6773 52.6387 38.9756 53.3404 38.9756 54.2061C38.9756 55.0717 39.6773 55.7734 40.543 55.7734Z"
    fill="#FF6666" />
  <path
    d="M67.1885 85.4746C68.0541 85.4746 68.7559 84.7729 68.7559 83.9072C68.7559 83.0416 68.0541 82.3398 67.1885 82.3398C66.3228 82.3398 65.6211 83.0416 65.6211 83.9072C65.6211 84.7729 66.3228 85.4746 67.1885 85.4746Z"
    fill="#FF6666" />
  <path
    d="M76.5928 54.127C77.4584 54.127 78.1602 53.4252 78.1602 52.5596C78.1602 51.6939 77.4584 50.9922 76.5928 50.9922C75.7271 50.9922 75.0254 51.6939 75.0254 52.5596C75.0254 53.4252 75.7271 54.127 76.5928 54.127Z"
    fill="#FF6666" />
  <path
    d="M92.8936 105.433V44.2002C92.8936 43.7568 93.0697 43.3315 93.3832 43.018C93.6968 42.7045 94.122 42.5283 94.5654 42.5283H97.4912C97.9346 42.5283 98.3599 42.7045 98.6734 43.018C98.9869 43.3315 99.1631 43.7568 99.1631 44.2002V105.433H92.8936ZM14.1064 105.433V44.2002C14.1064 43.7568 13.9303 43.3315 13.6168 43.018C13.3032 42.7045 12.878 42.5283 12.4346 42.5283H9.50879C9.06538 42.5283 8.64013 42.7045 8.3266 43.018C8.01306 43.3315 7.83691 43.7568 7.83691 44.2002V105.433H14.1064Z"
    fill="#002C77" />
  <path
    d="M103.761 99.1631H3.23926C2.31591 99.1631 1.56738 99.9116 1.56738 100.835V103.761C1.56738 104.684 2.31591 105.433 3.23926 105.433H103.761C104.684 105.433 105.433 104.684 105.433 103.761V100.835C105.433 99.9116 104.684 99.1631 103.761 99.1631Z"
    fill="#002C77" />
  <path
    d="M45.7153 20.376C45.7153 21.2074 45.3851 22.0047 44.7972 22.5926C44.2093 23.1805 43.412 23.5107 42.5806 23.5107H22.5181C22.5181 24.3421 22.8483 25.1395 23.4362 25.7274C24.0241 26.3152 24.8214 26.6455 25.6528 26.6455H45.7153C46.5467 26.6455 47.3441 26.3152 47.9319 25.7274C48.5198 25.1395 48.8501 24.3421 48.8501 23.5107C48.8501 22.6794 48.5198 21.882 47.9319 21.2941C47.3441 20.7062 46.5467 20.376 45.7153 20.376Z"
    fill="#002C77" />
</svg>