<svg width="91" height="91" viewBox="0 0 91 91" fill="none" xmlns="http://www.w3.org/2000/svg">
  <g clip-path="url(#clip0)">
    <path
      d="M86.6456 45.9799C86.6456 59.7543 74.5419 66.8992 62.1005 66.8992C54.2979 66.8992 46.6376 64.091 41.9987 58.599C41.1278 57.5682 40.3813 56.4484 39.7415 55.2754C38.3374 52.6271 37.5376 49.5168 37.5376 45.9799C37.5731 44.1137 37.8575 42.283 38.3907 40.4879C40.4524 33.2186 45.9267 25.3271 50.761 21.7369C52.5739 20.3861 53.0183 17.8445 51.7386 15.9783L46.5665 8.40684C45.82 7.30488 46.1044 5.79414 47.2063 5.04766C47.5796 4.79883 48.0239 4.65664 48.4683 4.62109L48.6638 4.60332C49.1614 4.58555 49.6591 4.70996 50.0679 4.97656L53.356 7.10938C54.9378 8.12246 56.9995 7.89141 58.3147 6.57617L59.861 5.02988C61.0874 3.80352 63.078 3.80352 64.3222 5.02988L65.8862 6.59395C67.2015 7.90918 69.2454 8.14023 70.8272 7.14492L74.4175 4.90547C74.8085 4.65664 75.2528 4.53223 75.6972 4.53223C75.7505 4.53223 75.8038 4.53223 75.8571 4.53223C77.1901 4.62109 78.2032 5.77637 78.1144 7.0916C78.0788 7.51816 77.9366 7.94473 77.7056 8.3002L72.4446 15.9961C71.1649 17.8623 71.6093 20.4217 73.4222 21.7547C79.5185 26.2869 86.6456 37.6797 86.6456 45.9799Z"
      fill="#002C77" />
    <path
      d="M60.5896 6.59395C61.9048 7.90918 63.9488 8.14023 65.5306 7.14492L66.0994 6.78945C66.0283 6.71836 65.9572 6.66504 65.8861 6.59395L64.322 5.02988C63.0957 3.80352 61.105 3.80352 59.8609 5.02988L59.4521 5.43867L60.5896 6.59395ZM73.422 21.7547C71.6091 20.4039 71.1648 17.8623 72.4445 15.9961L77.6877 8.31797C78.4341 7.21602 78.1498 5.72305 77.0478 4.95879C76.6923 4.70996 76.2658 4.56777 75.8392 4.55C75.7859 4.55 75.7326 4.55 75.6792 4.55C75.2171 4.55 74.7906 4.67441 74.3996 4.92324L72.6222 6.04297C72.9421 6.78945 72.8533 7.66035 72.3912 8.33574L67.1658 15.9961C65.8861 17.8623 66.3304 20.4217 68.1433 21.7547C74.2396 26.2869 81.3667 37.6797 81.3667 45.9799C81.3667 58.7768 70.9337 65.8506 59.4699 66.7926C60.3408 66.8637 61.2294 66.8992 62.1181 66.8992C74.5595 66.8992 86.6632 59.7543 86.6632 45.9799C86.6455 37.6797 79.5183 26.2869 73.422 21.7547ZM48.0771 7.10938C49.5701 8.06914 51.4896 7.92695 52.8404 6.77168L50.0855 5.01211C49.6589 4.74551 49.1791 4.60332 48.6814 4.63887H48.4681C47.5617 4.67441 46.7619 5.20762 46.3708 6.0252L48.0771 7.10938Z"
      fill="#002C77" />
    <path
      d="M28.7396 80.2826C27.7265 80.0693 26.6957 80.0693 25.7003 80.3003L21.4703 81.2779L21.2214 82.5576L29.9482 80.5314L28.7396 80.2826Z"
      fill="#F9BD81" />
    <path
      d="M21.2036 81.8644L30.979 79.5894C31.9743 79.3584 33.0229 79.3584 34.0183 79.5716L57.6392 84.7793C60.4296 85.4013 63.3622 84.797 65.6728 83.1263L88.0495 67.0769C89.2226 66.2416 89.8802 64.8552 89.7913 63.4334C89.6491 61.1228 87.6763 59.3632 85.3657 59.4877C85.028 59.5054 84.7081 59.5587 84.3882 59.6654L53.1603 69.1742L25.3804 60.1275L21.2036 81.8644Z"
      fill="#FDD8AE" />
    <path
      d="M89.4892 62.0649C89.2403 62.4026 88.9204 62.7226 88.5649 62.9714L66.1882 79.0208C63.8599 80.6915 60.945 81.2958 58.1546 80.6737L34.5337 75.4661C33.5206 75.2528 32.4897 75.2528 31.4944 75.4839L22.0034 77.6878L21.2036 81.8645L30.979 79.5895C31.9743 79.3585 33.0229 79.3585 34.0183 79.5718L57.6392 84.7794C60.4296 85.4015 63.3622 84.7972 65.6727 83.1265L88.0495 67.077C89.6313 65.9395 90.2179 63.8778 89.4892 62.0649Z"
      fill="#FBBF7D" />
    <path
      d="M62.4736 68.41C62.4736 68.7655 62.438 69.121 62.3492 69.4764C61.7804 71.7514 59.5232 73.1911 57.2126 72.7467L49.5701 71.0227L19.2664 61.9938L33.1652 57.8171C37.5908 56.484 42.3363 56.7684 46.5664 58.5991L59.8253 64.3577C60.9984 64.8731 61.9048 65.8684 62.2781 67.0948C62.3136 67.1837 62.3314 67.2903 62.3492 67.3792C62.3492 67.3969 62.3492 67.3969 62.3669 67.4147C62.3847 67.5214 62.4203 67.628 62.4203 67.7346C62.4203 67.7524 62.4203 67.7702 62.4203 67.7702C62.438 67.859 62.438 67.9479 62.4558 68.0368C62.4558 68.1434 62.4736 68.2678 62.4736 68.41Z"
      fill="#FDD8AE" />
    <path
      d="M62.4736 68.41C62.4736 68.7654 62.438 69.1209 62.3492 69.4764C61.7804 71.7514 59.5232 73.191 57.2126 72.7467L49.5701 71.0227C49.5701 69.8496 50.5121 68.9076 51.6851 68.9076C51.8451 68.9076 52.005 68.9254 52.1472 68.9609L57.0882 70.0807C59.3277 70.5783 61.5849 69.2809 62.2781 67.0947C62.3492 67.308 62.4025 67.5213 62.4203 67.7346C62.4203 67.7523 62.4203 67.7701 62.4203 67.7701C62.438 67.859 62.438 67.9478 62.4558 68.0367C62.4558 68.1434 62.4736 68.2678 62.4736 68.41Z"
      fill="#FBBF7D" />
    <path
      d="M0.14209 58.1368L15.3917 57.106L26.1269 56.2528C27.7798 56.1284 29.2372 57.3548 29.3616 59.0077L31.2101 81.5089C31.3345 83.1618 30.1081 84.6192 28.4552 84.7436L17.72 85.5968L0.159863 86.8765"
      fill="#002C77" />
    <path
      d="M28.4375 84.7615L17.7024 85.6146L15.3918 57.1238L26.127 56.2706C27.7799 56.1462 29.2374 57.3726 29.3618 59.0255L31.2102 81.5267C31.3168 83.1796 30.0905 84.6193 28.4375 84.7615Z"
      fill="#002C77" />
    <path
      d="M62.1005 57.3372C69.7766 57.3372 75.9993 51.1145 75.9993 43.4384C75.9993 35.7623 69.7766 29.5396 62.1005 29.5396C54.4244 29.5396 48.2017 35.7623 48.2017 43.4384C48.2017 51.1145 54.4244 57.3372 62.1005 57.3372Z"
      fill="#FED947" />
    <path
      d="M62.1004 29.5571C61.2117 29.5571 60.323 29.646 59.4521 29.806C66.9881 31.2634 71.9113 38.5505 70.4539 46.0864C69.3697 51.6495 65.033 56.004 59.4521 57.0882C66.9881 58.5456 74.2752 53.6401 75.7326 46.1042C77.19 38.5683 72.2846 31.2812 64.7486 29.8237C63.8777 29.646 62.9891 29.5571 62.1004 29.5571Z"
      fill="#FECC30" />
    <path
      d="M89.969 60.4652C88.6004 58.5635 86.201 57.7281 83.9438 58.368C86.5032 54.8666 87.8362 50.6721 87.8362 45.9799C87.8362 37.3598 80.5668 25.5049 74.0795 20.6705C73.884 20.5283 73.7063 20.3506 73.5463 20.1551C75.377 19.924 77.2432 20.1551 78.9495 20.8305C80.5491 21.4881 81.971 22.5367 83.0907 23.852C83.3573 24.1719 83.7305 24.3318 84.1215 24.3318C84.4237 24.3318 84.7258 24.2252 84.9747 24.0297C85.5434 23.5498 85.6145 22.7145 85.1346 22.1457C83.7483 20.4928 81.9532 19.1775 79.9448 18.36C78.5229 17.7912 77.0122 17.4891 75.5014 17.418C76.6922 16.6537 78.2385 16.0316 80.0336 16.1561C81.4733 16.2627 82.8596 16.7604 84.0327 17.6135C84.6192 18.04 85.4545 17.9156 85.8989 17.3291C86.3254 16.7426 86.201 15.9072 85.6145 15.4629C84.0327 14.3076 82.1842 13.6322 80.2292 13.49C78.0963 13.3656 76.2657 13.9521 74.7727 14.7697L78.6651 9.06445C79.0383 8.51348 79.2694 7.87363 79.3049 7.19824C79.376 6.20293 79.0383 5.24316 78.3807 4.47891C77.7231 3.73242 76.7989 3.27031 75.8036 3.21699C75.7147 3.21699 75.6436 3.21699 75.5547 3.21699C74.8438 3.21699 74.1684 3.4125 73.5641 3.78574L69.9739 6.04297C68.9253 6.70059 67.5745 6.5584 66.6858 5.66973L65.1217 4.10566C63.3799 2.36387 60.5362 2.36387 58.7766 4.10566L57.2303 5.65195C56.3594 6.52285 54.9731 6.68281 53.9245 6.00742L50.6364 3.91016C49.9788 3.48359 49.2323 3.28809 48.4502 3.32363H48.2547C47.5616 3.35918 46.8684 3.57246 46.2997 3.96348C45.4643 4.53223 44.9133 5.38535 44.7356 6.36289C44.5579 7.34043 44.7534 8.33574 45.3221 9.17109L50.4942 16.7604C51.3651 18.04 51.0807 19.7818 49.8188 20.7061C44.5223 24.634 38.9948 33.0053 36.9686 40.1502C36.3999 42.052 36.0977 44.007 36.0622 45.9799V45.9977C36.0622 49.499 36.8086 52.7516 38.2838 55.6486C36.3821 55.6842 34.4803 55.9686 32.6319 56.5195L30.0725 57.2838C29.2905 55.773 27.6731 54.7777 25.8602 54.9199L15.1251 55.773L1.20845 56.9283C0.479738 56.9816 -0.0712386 57.6393 -0.0179183 58.368C0.035402 59.0967 0.693019 59.6477 1.42173 59.5943L14.0053 58.5635L16.1026 84.3883L1.20845 85.5613C0.479738 85.6146 -0.0712386 86.2545 -0.0179183 87.001C0.035402 87.6941 0.621925 88.2273 1.31509 88.2273C1.35064 88.2273 1.38618 88.2273 1.42173 88.2273L28.384 86.0945C30.7657 85.899 32.5608 83.8018 32.3653 81.4201L32.312 80.7625C32.7385 80.7625 33.1651 80.798 33.5917 80.8869L57.2303 86.0768C58.0479 86.2545 58.8655 86.3434 59.6831 86.3434C62.0469 86.3434 64.3753 85.6146 66.3303 84.2105L88.6893 68.1611C89.8979 67.308 90.6799 66.0283 90.9288 64.5709C91.1776 63.1135 90.8399 61.6738 89.969 60.4652ZM29.7348 81.8289C29.7348 81.8822 29.7348 81.9355 29.717 81.9889C29.6993 82.0777 29.6815 82.1488 29.6637 82.2199C29.6637 82.2377 29.6637 82.2555 29.646 82.2732C29.4327 82.8953 28.8817 83.3574 28.1885 83.4107L18.7864 84.1572L16.6891 58.3324L26.0913 57.5859C26.1446 57.5859 26.1979 57.5859 26.269 57.5859C26.2868 57.5859 26.2868 57.5859 26.3045 57.5859C26.9622 57.6215 27.5309 58.0125 27.7797 58.599C27.7797 58.6168 27.7975 58.6168 27.7975 58.6346C27.8153 58.6701 27.8153 58.7057 27.8331 58.7234C27.8331 58.7412 27.8508 58.759 27.8508 58.7945C27.8508 58.8123 27.8686 58.8479 27.8686 58.8656C27.8686 58.9012 27.8864 58.9189 27.8864 58.9545C27.8864 58.9723 27.8864 59.0078 27.9042 59.0256C27.9042 59.0611 27.9219 59.0967 27.9219 59.1322L29.7704 81.6334C29.7704 81.6867 29.7704 81.74 29.7704 81.8111C29.7348 81.8111 29.7348 81.8289 29.7348 81.8289ZM47.5438 7.66035C47.3838 7.4293 47.3127 7.12715 47.3661 6.84277C47.4194 6.5584 47.5793 6.30957 47.8282 6.14961C47.9881 6.04297 48.1836 5.97187 48.3969 5.9541H48.5924C48.8235 5.93633 49.0368 6.00742 49.2145 6.13184L52.5026 8.2291C54.5821 9.56211 57.3725 9.25996 59.1321 7.51816L60.6784 5.97187C61.3893 5.26094 62.5446 5.26094 63.2555 5.97187L64.8196 7.53594C66.5792 9.29551 69.2807 9.59766 71.3958 8.28242L74.986 6.04297C75.1637 5.93633 75.3592 5.88301 75.5547 5.88301C75.5725 5.88301 75.6081 5.88301 75.6258 5.88301C75.9102 5.90078 76.1768 6.0252 76.3723 6.25625C76.5678 6.46953 76.6567 6.75391 76.6389 7.03828C76.6212 7.23379 76.5678 7.41152 76.4612 7.57148L71.218 15.2496C70.6137 16.1205 70.2938 17.1514 70.2583 18.2C67.4678 18.9109 64.6063 19.2664 61.727 19.2664H61.7092C59.0077 19.2664 56.3061 18.9465 53.6756 18.3244C53.6579 17.258 53.3557 16.1916 52.7159 15.2496L47.5438 7.66035ZM39.5458 40.8789C41.4475 34.1961 46.5485 26.4469 51.4362 22.8211C52.1471 22.2879 52.6981 21.6303 53.0713 20.9016C55.8973 21.577 58.8122 21.9146 61.7092 21.9146H61.727C64.8018 21.9146 67.8411 21.5414 70.827 20.7949C71.218 21.5947 71.7868 22.2879 72.5155 22.8211C78.3807 27.1756 85.1879 38.2484 85.1879 45.9799C85.1879 51.5963 83.0196 56.3951 78.8961 59.8965L62.4913 64.8908C61.9047 64.1266 61.1405 63.5045 60.2163 63.1135L46.9573 57.3549C45.1977 56.5906 43.3493 56.093 41.4831 55.8264C41.2342 55.4531 41.021 55.0621 40.8077 54.6533C39.4569 52.0762 38.7637 49.1613 38.7637 45.9799C38.7815 44.2736 39.0481 42.5496 39.5458 40.8789ZM88.2983 64.1443C88.1739 64.8908 87.7651 65.5484 87.143 65.9928L64.7663 82.0422C62.7579 83.4818 60.2163 84.015 57.7991 83.4818L34.1782 78.2742C33.5028 78.132 32.8096 78.0609 32.1165 78.0965L30.6235 59.9143L33.4139 59.0789C37.5196 57.8348 41.9629 58.1014 45.8909 59.8076L59.1499 65.5662C60.5006 66.1527 61.2471 67.6279 60.9272 69.0676C60.554 70.7205 58.901 71.7691 57.2481 71.3959L49.7122 69.6897C49.0012 69.5297 48.2725 69.974 48.1126 70.7027C47.9526 71.4314 48.3969 72.1424 49.1256 72.3023L56.6616 74.0086C57.0881 74.0975 57.5147 74.1508 57.9235 74.1508C60.554 74.1508 62.9356 72.3379 63.5399 69.6541C63.7176 68.8721 63.7176 68.1078 63.5932 67.3613L79.9626 62.3848C79.9803 62.3848 79.9981 62.367 80.0159 62.367L84.6725 60.9451C85.8456 60.5896 87.1075 61.0162 87.8362 62.0115C88.245 62.6336 88.4227 63.3979 88.2983 64.1443ZM61.9758 58.6701C70.3649 58.6701 77.2077 51.8451 77.2077 43.4561C77.2077 35.067 70.3827 28.242 61.9758 28.242C53.569 28.242 46.744 35.0492 46.744 43.4383C46.744 51.8451 53.569 58.6701 61.9758 58.6701ZM61.9758 30.8902C68.9075 30.8902 74.5417 36.5244 74.5417 43.4383C74.5417 50.3521 68.9075 55.9863 61.9758 55.9863C55.0442 55.9863 49.41 50.3521 49.41 43.4383C49.41 36.5244 55.0442 30.8902 61.9758 30.8902ZM56.786 41.2166C56.786 41.9453 57.3903 42.5496 58.119 42.5496H62.0469C61.9225 42.7984 61.7448 43.0295 61.5315 43.2428C60.9983 43.776 60.2696 44.0781 59.5053 44.0781H58.119C57.5858 44.0781 57.1059 44.398 56.8926 44.8957C56.6794 45.3934 56.786 45.9621 57.1592 46.3354L62.7579 52.2006C63.0245 52.4672 63.3622 52.6094 63.7176 52.6094C64.0553 52.6094 64.3753 52.485 64.6419 52.2361C65.1751 51.7207 65.1928 50.8853 64.6774 50.3521L61.0338 46.5309C61.9225 46.282 62.7579 45.8021 63.4333 45.1268C64.162 44.398 64.6596 43.5094 64.8907 42.5496H65.8149C66.5436 42.5496 67.1479 41.9453 67.1479 41.2166C67.1479 40.4879 66.5436 39.8836 65.8149 39.8836H64.8907C64.7663 39.3504 64.5352 38.835 64.2508 38.3551H65.8149C66.5436 38.3551 67.1479 37.7508 67.1479 37.0221C67.1479 36.2934 66.5436 35.6891 65.8149 35.6891H58.119C57.3903 35.6891 56.786 36.2934 56.786 37.0221C56.786 37.7508 57.3903 38.3551 58.119 38.3551H59.5231C60.2874 38.3551 60.9983 38.6572 61.5493 39.1904C61.7626 39.4037 61.9225 39.6348 62.0647 39.8836H58.119C57.3903 39.8836 56.786 40.4879 56.786 41.2166Z"
      fill="#3C3B41" />
  </g>
  <defs>
    <clipPath id="clip0">
      <rect width="91" height="91" fill="white" />
    </clipPath>
  </defs>
</svg>