<svg width="88" height="88" viewBox="0 0 88 88" fill="none" xmlns="http://www.w3.org/2000/svg">
  <g clip-path="url(#clip0)">
    <path d="M53.4668 71.4209H13.0693V79.1553H53.4668V71.4209Z" fill="#A17855" />
    <path d="M53.467 74.2586V79.1553H47.3638L42.8967 71.4209H51.8291L53.467 74.2586Z" fill="#896848" />
    <path d="M63.2345 86.711H54.3038L49.9417 79.1554L45.4746 71.421L37.6526 57.8721L44.3506 54.0049L63.2345 86.711Z"
      fill="#B28B6A" />
    <path
      d="M44.3437 54.0049L42.3843 55.1358L55.8662 78.4833C56.1679 79.0059 56.3267 79.5987 56.3267 80.2021C56.3267 80.8055 56.1679 81.3982 55.8662 81.9208C55.5645 82.4434 55.1305 82.8773 54.608 83.179C54.0854 83.4807 53.4927 83.6396 52.8893 83.6396H52.5232L54.3124 86.711H63.2499L44.3437 54.0049Z"
      fill="#A17855" />
    <path d="M23.6379 71.4209L19.1709 79.1553H13.0693V74.2551L14.7056 71.4209H23.6379Z" fill="#896848" />
    <path
      d="M12.1325 86.711H3.2998L22.1837 54.0049L28.8078 57.8291L28.8817 57.8721L21.0596 71.421L16.5926 79.1554L12.2304 86.711"
      fill="#B28B6A" />
    <path
      d="M33.2681 65.2472C50.9297 65.2472 65.2472 50.9297 65.2472 33.2681C65.2472 15.6066 50.9297 1.28906 33.2681 1.28906C15.6066 1.28906 1.28906 15.6066 1.28906 33.2681C1.28906 50.9297 15.6066 65.2472 33.2681 65.2472Z"
      fill="#EB304A" />
    <path
      d="M33.2578 35.7156C33.2574 35.8849 33.2903 36.0526 33.3546 36.2092C33.419 36.3658 33.5136 36.5081 33.6329 36.6281C33.7523 36.7482 33.8942 36.8435 34.0504 36.9087C34.2066 36.9739 34.3742 37.0077 34.5434 37.0081H36.8053L46.4922 37.0356L56.1584 37.0648L65.0186 37.0906C63.128 52.9461 49.6323 65.2386 33.2681 65.2386C15.6062 65.2386 1.28906 50.9214 1.28906 33.2698C1.28906 15.6183 15.6062 1.28906 33.2681 1.28906C50.93 1.28906 65.2455 15.6062 65.2455 33.2681C65.2455 33.6875 65.2374 34.1046 65.2214 34.5194L56.4386 34.4936L46.9666 34.4661L38.2886 34.4403L34.5469 34.43C34.2056 34.43 33.8782 34.5653 33.6366 34.8063C33.3949 35.0473 33.2587 35.3743 33.2578 35.7156Z"
      fill="#002C77" />
    <path
      d="M46.4922 37.0425L36.8053 37.015H34.5434C34.2015 37.0321 33.8669 36.9127 33.613 36.683C33.3592 36.4534 33.207 36.1323 33.1899 35.7904C33.1728 35.4485 33.2922 35.1138 33.5219 34.86C33.7515 34.6062 34.0726 34.454 34.4145 34.4369H31.9722C31.6303 34.4369 31.3024 34.5727 31.0607 34.8144C30.8189 35.0562 30.6831 35.3841 30.6831 35.7259C30.6831 36.0678 30.8189 36.3957 31.0607 36.6374C31.3024 36.8792 31.6303 37.015 31.9722 37.015H34.234L43.9209 37.0425L53.5872 37.0717L62.4473 37.0975C61.5357 44.638 57.9704 51.608 52.3897 56.7602C46.8089 61.9123 39.5768 64.9105 31.9876 65.218C32.4122 65.2352 32.8384 65.2455 33.2681 65.2455C49.6323 65.2455 63.1262 52.953 65.0186 37.0975L56.1584 37.0717L46.4922 37.0425ZM33.2681 1.28906C32.8367 1.28906 32.4087 1.29937 31.979 1.31656C49.0411 1.99375 62.6673 16.0377 62.6673 33.2681C62.6673 33.6864 62.6593 34.1011 62.6433 34.5125H65.2214C65.2363 34.0989 65.2443 33.6818 65.2454 33.2613C65.2454 15.6063 50.9283 1.28906 33.2681 1.28906Z"
      fill="#002C77" />
    <path
      d="M33.2681 56.4712C46.0828 56.4712 56.4712 46.0828 56.4712 33.2681C56.4712 20.4533 46.0828 10.0649 33.2681 10.0649C20.4533 10.0649 10.0649 20.4533 10.0649 33.2681C10.0649 46.0828 20.4533 56.4712 33.2681 56.4712Z"
      fill="white" />
    <path
      d="M33.2578 35.7156C33.2573 35.8849 33.2902 36.0526 33.3546 36.2092C33.4189 36.3657 33.5135 36.5081 33.6329 36.6281C33.7523 36.7481 33.8941 36.8435 34.0503 36.9087C34.2066 36.9739 34.3741 37.0077 34.5434 37.0081H36.8053L46.4921 37.0356L56.1584 37.0648C54.3399 48.0562 44.7665 56.4644 33.2681 56.4644C20.4737 56.4644 10.0649 46.0556 10.0649 33.2612C10.0649 20.4669 20.4737 10.0581 33.2681 10.0581C46.0624 10.0581 56.4712 20.4669 56.4712 33.2612C56.4712 33.6714 56.4603 34.0799 56.4385 34.4867L46.9665 34.4592L38.2885 34.4334L34.5468 34.43C34.2055 34.43 33.8782 34.5653 33.6365 34.8063C33.3949 35.0473 33.2587 35.3743 33.2578 35.7156Z"
      fill="white" />
    <path
      d="M33.2681 47.0181C40.862 47.0181 47.0181 40.862 47.0181 33.2681C47.0181 25.6742 40.862 19.5181 33.2681 19.5181C25.6742 19.5181 19.5181 25.6742 19.5181 33.2681C19.5181 40.862 25.6742 47.0181 33.2681 47.0181Z"
      fill="#EB304A" />
    <path
      d="M33.2578 35.7156C33.2573 35.8849 33.2902 36.0526 33.3546 36.2092C33.419 36.3657 33.5135 36.5081 33.6329 36.6281C33.7523 36.7481 33.8941 36.8435 34.0504 36.9087C34.2066 36.9739 34.3741 37.0077 34.5434 37.0081H36.8053L46.4922 37.0356C45.5386 40.3836 43.3506 43.2452 40.3698 45.0432C37.3889 46.8411 33.837 47.4415 30.4308 46.7231C27.0246 46.0048 24.0177 44.0213 22.0167 41.1727C20.0157 38.3242 19.1696 34.8227 19.6492 31.3748C20.1288 27.9269 21.8983 24.7892 24.6007 22.5949C27.3031 20.4005 30.7372 19.3129 34.2102 19.5514C37.6831 19.7899 40.9363 21.3368 43.3134 23.88C45.6904 26.4231 47.0144 29.7733 47.0181 33.2544C47.0181 33.6577 47.0009 34.0587 46.9665 34.4575L38.2886 34.4317L34.5469 34.43C34.2056 34.43 33.8782 34.5653 33.6366 34.8063C33.3949 35.0473 33.2587 35.3743 33.2578 35.7156Z"
      fill="#002C77" />
    <path
      d="M33.2681 38.4243C36.1158 38.4243 38.4243 36.1158 38.4243 33.2681C38.4243 30.4203 36.1158 28.1118 33.2681 28.1118C30.4203 28.1118 28.1118 30.4203 28.1118 33.2681C28.1118 36.1158 30.4203 38.4243 33.2681 38.4243Z"
      fill="white" />
    <path
      d="M33.2578 35.7156C33.2573 35.8848 33.2902 36.0525 33.3546 36.2091C33.4189 36.3657 33.5135 36.508 33.6329 36.6281C33.7523 36.7481 33.8941 36.8434 34.0503 36.9086C34.2066 36.9738 34.3741 37.0076 34.5434 37.0081H36.8053C35.9419 37.8221 34.8241 38.3134 33.6406 38.3991C32.4571 38.4849 31.2802 38.1598 30.3085 37.4787C29.3368 36.7976 28.6298 35.8022 28.3067 34.6604C27.9835 33.5186 28.0641 32.3003 28.5348 31.2111C29.0055 30.1218 29.8375 29.2282 30.8904 28.681C31.9434 28.1338 33.1528 27.9666 34.3147 28.2074C35.4766 28.4483 36.5199 29.0826 37.2686 30.0032C38.0172 30.9239 38.4254 32.0746 38.4243 33.2612C38.4249 33.6559 38.3793 34.0493 38.2885 34.4334L34.5468 34.4299C34.2055 34.4299 33.8782 34.5653 33.6365 34.8063C33.3949 35.0473 33.2587 35.3743 33.2578 35.7156Z"
      fill="white" />
    <path
      d="M65.2214 34.5194C65.1882 35.3891 65.1206 36.2485 65.0186 37.0976L56.1584 37.0718C56.3008 36.2184 56.3943 35.3577 56.4386 34.4937L65.2214 34.5194Z"
      fill="#002C77" />
    <path
      d="M56.4386 34.4936C56.3943 35.3576 56.3008 36.2184 56.1584 37.0717L46.4922 37.0425C46.7323 36.2002 46.8911 35.3369 46.9666 34.4644L56.4386 34.4936Z"
      fill="#EFE5DD" />
    <path
      d="M46.9664 34.4662C46.891 35.3388 46.7321 36.2021 46.4921 37.0443L36.8052 37.0168C37.5433 36.3228 38.0595 35.4257 38.2885 34.4387L46.9664 34.4662Z"
      fill="#002C77" />
    <path
      d="M38.2886 34.4402C38.0596 35.4272 37.5435 36.3243 36.8053 37.0183H34.5435C34.2016 37.0183 33.8737 36.8825 33.632 36.6408C33.3902 36.399 33.2544 36.0711 33.2544 35.7292C33.2544 35.3874 33.3902 35.0595 33.632 34.8177C33.8737 34.576 34.2016 34.4402 34.5435 34.4402H38.2886Z"
      fill="#E1E1E3" />
    <path
      d="M78.6397 34.5588L34.5469 34.4299C34.205 34.4299 33.8771 34.2941 33.6354 34.0524C33.3936 33.8106 33.2578 33.4827 33.2578 33.1409C33.2578 32.799 33.3936 32.4711 33.6354 32.2294C33.8771 31.9876 34.205 31.8518 34.5469 31.8518L78.6397 31.9807C78.9816 31.9807 79.3094 32.1165 79.5512 32.3583C79.7929 32.6 79.9288 32.9279 79.9288 33.2698C79.9288 33.6117 79.7929 33.9395 79.5512 34.1813C79.3094 34.423 78.9816 34.5588 78.6397 34.5588Z"
      fill="#57565C" />
    <path
      d="M85.7467 28.5983L81.223 32.8951C81.1723 32.9433 81.1319 33.0013 81.1043 33.0655C81.0767 33.1298 81.0625 33.199 81.0625 33.269C81.0625 33.3389 81.0767 33.4081 81.1043 33.4724C81.1319 33.5366 81.1723 33.5946 81.223 33.6428L85.7657 37.9654C85.8401 38.0365 85.8916 38.1283 85.9135 38.229C85.9353 38.3296 85.9266 38.4345 85.8883 38.5301C85.85 38.6257 85.784 38.7076 85.6987 38.7654C85.6135 38.8231 85.5128 38.854 85.4099 38.854L74.1521 38.8231C74.0204 38.8231 73.8937 38.7726 73.798 38.6822L68.4596 33.6084C68.4089 33.5602 68.3685 33.5023 68.3409 33.438C68.3133 33.3737 68.2991 33.3045 68.2991 33.2346C68.2991 33.1646 68.3133 33.0954 68.3409 33.0312C68.3685 32.9669 68.4089 32.9089 68.4596 32.8608L73.7653 27.8197C73.8619 27.7284 73.99 27.6779 74.1228 27.6787L85.3892 27.7097C85.4924 27.7094 85.5932 27.74 85.6787 27.7976C85.7643 27.8552 85.8306 27.9372 85.8691 28.0328C85.9076 28.1285 85.9165 28.2335 85.8947 28.3343C85.8729 28.4351 85.8213 28.527 85.7467 28.5983Z"
      fill="#FDDD5A" />
    <path
      d="M85.7658 37.9654L81.218 33.6427C81.1672 33.5946 81.1269 33.5366 81.0993 33.4723C81.0717 33.4081 81.0575 33.3388 81.0575 33.2689C81.0575 33.199 81.0717 33.1298 81.0993 33.0655C81.1269 33.0012 81.1672 32.9432 81.218 32.8951L85.7417 28.5982C85.8161 28.5272 85.8675 28.4356 85.8895 28.3351C85.9114 28.2346 85.9027 28.1299 85.8647 28.0344C85.8266 27.9388 85.7608 27.8569 85.6758 27.799C85.5908 27.7411 85.4905 27.71 85.3876 27.7096L74.1281 27.6718C74.1036 27.6683 74.0787 27.6683 74.0542 27.6718L82.8198 27.6959C82.9227 27.6963 83.023 27.7274 83.108 27.7853C83.193 27.8431 83.2588 27.9251 83.2969 28.0206C83.3349 28.1162 83.3436 28.2209 83.3216 28.3214C83.2997 28.4218 83.2483 28.5134 83.1739 28.5845L78.6501 32.8813C78.5994 32.9295 78.5591 32.9875 78.5315 33.0517C78.5039 33.116 78.4897 33.1852 78.4897 33.2552C78.4897 33.3251 78.5039 33.3943 78.5315 33.4586C78.5591 33.5228 78.5994 33.5808 78.6501 33.629L83.1876 37.9654C83.2569 38.0313 83.3065 38.1152 83.3308 38.2076C83.3552 38.3001 83.3533 38.3975 83.3255 38.4889C83.2977 38.5804 83.245 38.6624 83.1733 38.7256C83.1016 38.7889 83.0137 38.8309 82.9195 38.8471H85.41C85.5115 38.8457 85.6104 38.8143 85.6941 38.7569C85.7779 38.6995 85.8429 38.6187 85.8809 38.5245C85.9189 38.4303 85.9282 38.327 85.9077 38.2276C85.8873 38.1281 85.8379 38.0369 85.7658 37.9654Z"
      fill="#FED030" />
    <path
      d="M66.0086 88H50.4436C50.1017 88 49.7738 87.8642 49.5321 87.6224C49.2903 87.3807 49.1545 87.0528 49.1545 86.7109C49.1545 86.3691 49.2903 86.0412 49.5321 85.7994C49.7738 85.5577 50.1017 85.4219 50.4436 85.4219H66.0086C66.3505 85.4219 66.6784 85.5577 66.9201 85.7994C67.1618 86.0412 67.2977 86.3691 67.2977 86.7109C67.2977 87.0528 67.1618 87.3807 66.9201 87.6224C66.6784 87.8642 66.3505 88 66.0086 88ZM16.3384 88H1.28906C0.947182 88 0.619304 87.8642 0.377558 87.6224C0.135812 87.3807 0 87.0528 0 86.7109C0 86.3691 0.135812 86.0412 0.377558 85.7994C0.619304 85.5577 0.947182 85.4219 1.28906 85.4219H16.3384C16.6803 85.4219 17.0082 85.5577 17.2499 85.7994C17.4917 86.0412 17.6275 86.3691 17.6275 86.7109C17.6275 87.0528 17.4917 87.3807 17.2499 87.6224C17.0082 87.8642 16.6803 88 16.3384 88Z"
      fill="#896848" />
    <path
      d="M87.5995 37.9242L82.7011 33.2698L87.5686 28.6481C87.7555 28.4708 87.8849 28.2415 87.9402 27.9899C87.9955 27.7382 87.9742 27.4758 87.8789 27.2365C87.7836 26.9971 87.6188 26.7917 87.4057 26.6469C87.1926 26.5021 86.9411 26.4245 86.6834 26.4241L73.9251 26.388C73.5938 26.389 73.275 26.5155 73.0331 26.742L67.5572 31.943H66.507C65.8075 14.2089 51.1672 0 33.2681 0C14.9239 0 0 14.9239 0 33.2681C0.00415675 39.0173 1.49775 44.6673 4.3352 49.6675C7.17266 54.6677 11.2572 58.8474 16.1906 61.7994L2.55578 85.4219H1.28906C0.947182 85.4219 0.619304 85.5577 0.377558 85.7994C0.135812 86.0412 0 86.3691 0 86.7109C0 87.0528 0.135812 87.3807 0.377558 87.6224C0.619304 87.8642 0.947182 88 1.28906 88H16.3384C16.6803 88 17.0082 87.8642 17.2499 87.6224C17.4917 87.3807 17.6275 87.0528 17.6275 86.7109C17.6275 86.3691 17.4917 86.0412 17.2499 85.7994C17.0082 85.5577 16.6803 85.4219 16.3384 85.4219H14.4633L17.337 80.4375H49.1975L52.0781 85.4219H50.4505C50.1086 85.4219 49.7807 85.5577 49.539 85.7994C49.2972 86.0412 49.1614 86.3691 49.1614 86.7109C49.1614 87.0528 49.2972 87.3807 49.539 87.6224C49.7807 87.8642 50.1086 88 50.4505 88H66.0155C66.3573 88 66.6852 87.8642 66.927 87.6224C67.1687 87.3807 67.3045 87.0528 67.3045 86.7109C67.3045 86.3691 67.1687 86.0412 66.927 85.7994C66.6852 85.5577 66.3573 85.4219 66.0155 85.4219H63.9787L50.3302 61.8148C55.0873 58.972 59.0592 54.9863 61.8857 50.2195C64.7121 45.4526 66.3036 40.0554 66.5156 34.5177H67.5606L73.0709 39.753C73.3099 39.9799 73.6265 40.1072 73.9561 40.1087L86.7144 40.1431C86.9719 40.143 87.2235 40.0657 87.4368 39.9213C87.65 39.7768 87.8151 39.5718 87.9107 39.3326C88.0063 39.0935 88.0281 38.8312 87.9733 38.5795C87.9184 38.3279 87.7894 38.0984 87.603 37.9208L87.5995 37.9242ZM15.4688 78.5331C15.4683 78.5365 15.4683 78.54 15.4688 78.5434L11.4864 85.4219H5.53266L18.4508 63.0472C20.0055 63.8247 21.6193 64.4781 23.277 65.0014L15.4688 78.5331ZM18.8255 77.8594L21.8041 72.7031H44.7305L47.7091 77.8594H18.8255ZM23.2942 70.125L25.8517 65.6941C30.7341 66.8055 35.8039 66.8055 40.6862 65.6941L43.242 70.125H23.2942ZM61.0019 85.4219H55.0481L51.0761 78.5469L43.2609 65.0117C44.9137 64.4907 46.5229 63.8401 48.0734 63.0661L61.0019 85.4219ZM33.2681 63.9564C16.3453 63.9564 2.57812 50.1875 2.57812 33.2681C2.57812 16.3487 16.3453 2.57812 33.2681 2.57812C49.7423 2.57812 63.2242 15.6286 63.9272 31.9327L57.7225 31.9155C57.0178 19.0369 46.3186 8.77594 33.2681 8.77594C19.7656 8.77594 8.77594 19.7656 8.77594 33.2681C8.77594 46.7706 19.7622 57.7603 33.2681 57.7603C46.3616 57.7603 57.0883 47.4323 57.7294 34.4936L63.9306 34.5108C63.2741 50.8595 49.7733 63.9564 33.2681 63.9564ZM34.5469 34.43H36.9531C36.6777 35.3001 36.1036 36.0448 35.3322 36.5325C34.5608 37.0203 33.6418 37.2196 32.7377 37.0953C31.8335 36.971 31.0024 36.5311 30.3913 35.8533C29.7801 35.1755 29.4282 34.3035 29.3978 33.3913C29.3674 32.4792 29.6605 31.5857 30.2251 30.8687C30.7898 30.1517 31.5897 29.6574 32.4836 29.4732C33.3775 29.289 34.3077 29.4267 35.1098 29.8619C35.912 30.2972 36.5344 31.0021 36.8672 31.8519H34.5503C34.2084 31.8519 33.8806 31.9877 33.6388 32.2294C33.3971 32.4712 33.2612 32.7991 33.2612 33.1409C33.2612 33.4828 33.3971 33.8107 33.6388 34.0524C33.8806 34.2942 34.2084 34.43 34.5503 34.43H34.5469ZM33.2716 26.8228C32.047 26.8225 30.8477 27.1709 29.8141 27.8275C28.7804 28.484 27.9551 29.4214 27.4349 30.53C26.9147 31.6385 26.721 32.8723 26.8766 34.0869C27.0322 35.3015 27.5305 36.4467 28.3133 37.3884C29.0961 38.33 30.131 39.0292 31.2967 39.404C32.4625 39.7789 33.7109 39.8139 34.8958 39.5049C36.0808 39.196 37.1532 38.5559 37.9875 37.6595C38.8218 36.7632 39.3835 35.6477 39.6069 34.4437L45.6741 34.4609C45.3691 37.6404 43.8553 40.5814 41.445 42.6772C39.0346 44.7729 35.9118 45.8633 32.7208 45.7235C29.5298 45.5836 26.5143 44.2241 24.2966 41.9255C22.0789 39.6269 20.8282 36.5647 20.8026 33.3708C20.7771 30.1768 21.9786 27.095 24.1593 24.7612C26.34 22.4274 29.3333 21.0199 32.5216 20.829C35.7099 20.6381 38.8499 21.6784 41.2934 23.7353C43.737 25.7922 45.2977 28.7087 45.6534 31.8828L39.5605 31.8656C39.24 30.4355 38.4424 29.1571 37.2988 28.2406C36.1552 27.324 34.7337 26.824 33.2681 26.8228H33.2716ZM33.2716 18.2291C30.3482 18.229 27.4883 19.081 25.0415 20.6807C22.5947 22.2805 20.6672 24.5586 19.4948 27.2366C18.3224 29.9145 17.9558 32.8761 18.44 35.759C18.9242 38.642 20.2381 41.3213 22.2211 43.4693C24.204 45.6173 26.77 47.1408 29.6051 47.8535C32.4402 48.5661 35.4216 48.437 38.1845 47.482C40.9475 46.527 43.3722 44.7874 45.162 42.476C46.9519 40.1647 48.0293 37.3818 48.2625 34.4678L55.1513 34.4867C54.5153 46.0023 44.9453 55.1822 33.2716 55.1822C27.4596 55.1822 21.8857 52.8734 17.776 48.7637C13.6663 44.654 11.3575 39.0801 11.3575 33.2681C11.3575 27.4562 13.6663 21.8822 17.776 17.7725C21.8857 13.6629 27.4596 11.3541 33.2716 11.3541C44.8989 11.3541 54.438 20.4634 55.1409 31.9086L48.247 31.8897C47.8983 28.1569 46.17 24.6883 43.4 22.162C40.6299 19.6357 37.0172 18.2333 33.2681 18.2291H33.2716ZM74.4373 28.9678L83.4642 28.9936L80.3172 31.9791L71.2903 31.9533L74.4373 28.9678ZM74.4717 37.5358L71.3109 34.5314L80.3172 34.5572L83.478 37.5598L74.4717 37.5358Z"
      fill="black" />
  </g>
  <defs>
    <clipPath id="clip0">
      <rect width="88" height="88" fill="white" />
    </clipPath>
  </defs>
</svg>